<svg width="40" height="40" viewBox="0 0 40 40" fill="none" xmlns="http://www.w3.org/2000/svg"><path d="M19.93 5.083a.787.787 0 00.787-.787V.786a.787.787 0 10-1.574 0v3.51c0 .435.353.787.787.787zM39.163 27.03l-1.39-1.386a2.608 2.608 0 00-1.856-.766c-.449 0-.88.112-1.262.321l-2.62-2.616.128-.127a2.73 2.73 0 000-3.856 2.7 2.7 0 00-1.37-.74 2.723 2.723 0 00-.689-2.694 2.701 2.701 0 00-1.37-.74 2.723 2.723 0 00-.69-2.696 2.714 2.714 0 00-1.368-.738 2.735 2.735 0 00-.689-2.696 2.731 2.731 0 00-2.221-.779l-5.19-.982c-.792-.15-1.78-.25-2.404.32-.04.035-.08.077-.12.123a2.736 2.736 0 00-2.87.631 2.707 2.707 0 00-.797 1.929c0 .263.037.52.108.765-.516.107-.989.36-1.367.74a2.703 2.703 0 00-.8 1.926c0 .264.038.522.109.768-.516.106-.99.359-1.369.738a2.709 2.709 0 00-.798 1.93c0 .56.166 1.092.476 1.542a2.71 2.71 0 00-1.048.652 2.731 2.731 0 000 3.858l.128.127-2.62 2.615a2.63 2.63 0 00-2.976.515L.837 27.101a2.605 2.605 0 00-.767 1.856c0 .703.272 1.362.767 1.856l1.736 1.734a.787.787 0 101.112-1.114L1.949 29.7a1.042 1.042 0 01-.306-.743c0-.282.109-.546.306-.742l1.39-1.387c.348-.347.88-.399 1.284-.157a.798.798 0 00.325.278l7.976 7.964a.783.783 0 00.38.384c.168.19.26.434.26.694 0 .282-.108.545-.305.742l-1.39 1.388a1.057 1.057 0 01-1.487.001l-1.735-1.736A.787.787 0 007.534 37.5l1.737 1.737a2.62 2.62 0 001.854.764c.672 0 1.344-.255 1.856-.765l1.39-1.388a2.605 2.605 0 00.768-1.856c0-.502-.14-.98-.4-1.394l2.949-2.944a.842.842 0 01.01-.01c.337-.349 1.277-.283 2.186-.22.646.045 1.366.095 2.07.014l3.228 3.224c-.209.381-.32.812-.32 1.26 0 .702.272 1.36.767 1.855l1.39 1.389a2.607 2.607 0 001.856.766c.702 0 1.36-.272 1.855-.766l8.433-8.423a2.605 2.605 0 00.767-1.856c0-.702-.272-1.361-.767-1.856zM18.283 8.08l3.413.647-2.043 2.042c-.316-.152-.75-.435-1.224-.89-.65-.622-1.116-1.34-1.158-1.788V8.09a.675.675 0 01-.004-.078c.103-.025.376-.052 1.016.069zm-3.99.642a1.16 1.16 0 011.47-.139c.254 1.07 1.167 2.04 1.578 2.433.304.291 1.281 1.165 2.267 1.405.133.19.206.419.206.66a1.145 1.145 0 01-1.153 1.152c-.31 0-.6-.12-.818-.338l-3.55-3.542a1.143 1.143 0 01-.335-.815c0-.31.12-.6.336-.816zm-2.055 3.434c.216-.217.506-.337.816-.337.31 0 .601.12.819.338l2.857 2.851c.45.45.45 1.184.002 1.633a1.153 1.153 0 01-.82.336c-.31 0-.602-.119-.819-.335l-2.167-2.167-.01-.01-.679-.678a1.145 1.145 0 01-.337-.817c0-.308.12-.597.338-.814zm-2.06 3.432a1.15 1.15 0 01.818-.335c.308 0 .596.117.812.33l2.174 2.173c.217.216.336.505.336.815a1.148 1.148 0 01-1.154 1.15c-.31 0-.601-.119-.818-.335l-.789-.787-1.379-1.378a1.146 1.146 0 01-.337-.816c0-.31.12-.6.337-.817zm-1.37 4.124a1.15 1.15 0 01.819-.337c.31 0 .6.12.818.337l.79.788c.216.216.336.506.336.815 0 .31-.12.599-.338.816a1.145 1.145 0 01-.817.337c-.31 0-.6-.12-.819-.338l-.097-.1-.004-.004-.005-.004-.681-.679a1.155 1.155 0 01-.001-1.632zm16.034 8.942a.787.787 0 00-1.113 0l-.7.699c-.665.665-1.87.581-3.036.5-1.266-.088-2.574-.179-3.421.691l-2.898 2.895-7.248-7.237 2.565-2.56c.424.26.913.4 1.425.4.731 0 1.417-.284 1.929-.797.515-.514.8-1.199.8-1.93l-.001-.02h.02a2.71 2.71 0 001.928-.795 2.7 2.7 0 00.8-1.93v-.02l.02.001a2.718 2.718 0 002.728-2.745h.02c.732 0 1.418-.283 1.93-.797a2.707 2.707 0 00.798-1.929c0-.51-.14-.999-.398-1.422l2.248-2.247a1.154 1.154 0 01.66-.325c.347-.048.712.059.977.323.45.451.45 1.184.002 1.633l-.685.682-.007.007-.788.787a.787.787 0 101.112 1.113l.687-.686.105-.104a1.159 1.159 0 011.632.004c.217.216.337.505.337.814 0 .31-.12.6-.338.817l-.689.69-.788.785a.787.787 0 001.11 1.115l.792-.789c.216-.217.506-.336.817-.336a1.147 1.147 0 011.155 1.153c0 .309-.12.598-.338.815l-1.373 1.374a.787.787 0 001.113 1.112l.673-.673.012-.01a1.14 1.14 0 01.817-.337 1.153 1.153 0 01.817 1.967l-.684.684-.001.002-1.086 1.084a.787.787 0 001.112 1.113l.531-.53 2.545 2.542-7.246 7.238-2.596-2.594a3.11 3.11 0 00.516-.415l.7-.7a.787.787 0 000-1.112zm13.209.975l-8.433 8.422a1.045 1.045 0 01-.743.306c-.283 0-.547-.109-.744-.306l-1.39-1.388a1.04 1.04 0 01-.306-.742c0-.281.109-.544.306-.741l8.432-8.423c.198-.197.462-.305.744-.305s.546.108.744.306l1.39 1.386c.197.197.306.46.306.742s-.109.546-.306.743zM9.483 4.42a.784.784 0 001.112-.002.787.787 0 000-1.112L7.726.444a.787.787 0 10-1.111 1.114L9.483 4.42zm20.339.23a.784.784 0 00.556-.23l2.865-2.862A.787.787 0 0032.13.445l-2.865 2.861a.787.787 0 00.556 1.343z" fill="#0B225C"/><path d="M4.908 33.844c-.305.31-.3.808.01 1.113l.002.002a.782.782 0 001.111-.01.788.788 0 00-1.123-1.105zm21.858-6.324a.788.788 0 10-.353-1.489l-.005.002a.785.785 0 00.358 1.488z" fill="#0B225C"/></svg>