<svg width="32" height="40" viewBox="0 0 32 40" fill="none" xmlns="http://www.w3.org/2000/svg"><path d="M31.26 33.107c-.09-5.436-5.648-7.042-9.706-8.215a82.589 82.589 0 01-1.356-.4V22.25a7.99 7.99 0 002.143-1.97h2.473c1.21 0 2.194-.985 2.194-2.195V15.43c.146-.342.228-.719.228-1.114v-.826c0-.394-.082-.77-.228-1.112v-1.37C27.008 4.938 22.07 0 16 0 9.932 0 4.995 4.938 4.995 11.008v1.33l.001.032a2.813 2.813 0 00-.232 1.12v.826a2.834 2.834 0 002.83 2.832h.645a7.951 7.951 0 003.563 5.101v2.243c-.427.132-.882.263-1.356.4C6.388 26.065.83 27.671.741 33.107v6.112c0 .431.35.781.78.781h2.317a.781.781 0 000-1.563H2.303v-5.31c.033-1.897.904-3.319 2.742-4.475 1.212-.763 2.695-1.306 4.156-1.76l1.888 3.677c.21.41.749.55 1.131.291l.842-.568.723 2.716-1.238 5.43h-1.693a.781.781 0 000 1.562h19.624c.431 0 .781-.35.781-.781v-6.112zm-10.14-6.714l.156.045-1.35 2.634-2.528-1.704 2.141-1.445c.498.157 1.027.31 1.581.47zM16 28.31l1.567 1.057-.757 2.845h-1.62l-.757-2.845L16 28.31zm0-1.884l-2.636-1.778v-1.645a7.89 7.89 0 002.636.452c.924 0 1.81-.16 2.636-.451v1.644L16 26.426zm6.365-15.275l-.032-.02c-1.603-1.021-2.988-1.902-5.157-1.282a.792.792 0 00-.06.02c-.46.173-.878.334-1.283.49-2.47.95-3.82 1.47-6.198 1.403v-.626A6.372 6.372 0 0116 4.771a6.372 6.372 0 016.365 6.365v.015zm3.08 6.934a.632.632 0 01-.631.632h-1.557c.22-.498.39-1.023.504-1.569h.645c.367 0 .717-.07 1.04-.198v1.136zm.228-3.769c0 .7-.568 1.27-1.267 1.27h-.48l.001-3.363h.48c.698 0 1.266.569 1.266 1.267v.826zm-18.08 1.27a1.27 1.27 0 01-1.266-1.27v-.826c0-.698.568-1.267 1.267-1.267h.479v3.363h-.48zm.494-4.925h-.493c-.365 0-.714.07-1.035.197.08-5.14 4.284-9.295 9.441-9.295 5.158 0 9.363 4.156 9.443 9.295a2.814 2.814 0 00-1.037-.197h-.493C23.666 6.51 20.21 3.209 16 3.209S8.334 6.51 8.087 10.66zm1.595 5.627v-.003a6.401 6.401 0 01-.047-.757v-2.204c2.673.066 4.268-.548 6.76-1.507.392-.151.798-.308 1.24-.474 1.476-.412 2.325.13 3.859 1.106.266.169.558.355.87.545v2.534c0 1.162-.314 2.25-.86 3.19H16a.781.781 0 100 1.562h4.228A6.337 6.337 0 0116 21.893c-3.252 0-5.94-2.453-6.318-5.605zm2.395 12.784l-1.352-2.634.155-.045c.554-.16 1.083-.313 1.58-.47l2.143 1.445-2.526 1.704zm2.072 9.366l1.064-4.663h1.575l1.064 4.663H14.15zm15.548 0H19.455l-1.24-5.43.723-2.717.844.569a.79.79 0 001.132-.291l1.885-3.677c1.461.454 2.944.998 4.156 1.76 1.838 1.156 2.71 2.578 2.742 4.474v5.312z" fill="#0B225C"/><path d="M26.612 34.531h-3.938a.781.781 0 000 1.563h3.938a.781.781 0 000-1.563zM7.346 38.438a.781.781 0 000 1.562h.002a.78.78 0 10-.002-1.563z" fill="#0B225C"/></svg>