<svg width="40" height="40" viewBox="0 0 40 40" fill="none" xmlns="http://www.w3.org/2000/svg"><path d="M37.54 35.285L31.663 25.11c.211-.246.498-.428.833-.507a3.121 3.121 0 002.105-1.691 3.12 3.12 0 00.01-2.7 1.568 1.568 0 01.432-1.895 3.121 3.121 0 001.163-2.437c0-.95-.424-1.839-1.163-2.437a1.568 1.568 0 01-.432-1.894 3.121 3.121 0 00-.01-2.7 3.121 3.121 0 00-2.105-1.692 1.568 1.568 0 01-1.212-1.52 3.12 3.12 0 00-1.18-2.428 3.121 3.121 0 00-2.63-.61 1.57 1.57 0 01-1.752-.843A3.121 3.121 0 0023.607.079a3.121 3.121 0 00-2.635.592c-.572.45-1.37.45-1.943 0A3.121 3.121 0 0016.394.08a3.121 3.121 0 00-2.118 1.677c-.32.653-1.04 1-1.75.843a3.121 3.121 0 00-2.63.61 3.121 3.121 0 00-1.181 2.429 1.568 1.568 0 01-1.212 1.52 3.121 3.121 0 00-2.105 1.69 3.121 3.121 0 00-.01 2.7 1.568 1.568 0 01-.432 1.895 3.121 3.121 0 00-1.163 2.437c0 .95.424 1.84 1.163 2.437.566.458.744 1.237.433 1.895a3.121 3.121 0 00.009 2.7 3.121 3.121 0 002.105 1.691c.335.079.622.26.833.507L2.46 35.285a.781.781 0 00.881 1.145l4.092-1.11 1.084 4.099a.781.781 0 001.432.19l5.013-8.682c.397.367.887.63 1.43.754a3.122 3.122 0 002.636-.592 1.568 1.568 0 011.943 0 3.12 3.12 0 002.634.592 3.124 3.124 0 001.431-.754l5.013 8.682a.781.781 0 001.432-.19l1.084-4.1 4.092 1.111a.781.781 0 00.881-1.145zM9.543 37.188l-.8-3.028a.781.781 0 00-.96-.554l-3.023.82 4.16-7.206c.197.516.53.976.974 1.331a3.121 3.121 0 002.63.61 1.568 1.568 0 011.424.397l-4.405 7.63zm13.715-7.03a1.566 1.566 0 01-1.322-.297 3.128 3.128 0 00-3.874 0 1.565 1.565 0 01-1.322.297 1.566 1.566 0 01-1.061-.841 3.127 3.127 0 00-3.491-1.681 1.565 1.565 0 01-1.32-.306 1.566 1.566 0 01-.592-1.218 3.127 3.127 0 00-2.415-3.03 1.565 1.565 0 01-1.056-.848A1.566 1.566 0 016.8 20.88a3.127 3.127 0 00-.862-3.778c-.371-.3-.584-.745-.584-1.222s.213-.922.584-1.222A3.127 3.127 0 006.8 10.88a1.565 1.565 0 01.005-1.354c.207-.43.592-.739 1.056-.848a3.126 3.126 0 002.415-3.03c.004-.476.22-.92.592-1.217a1.565 1.565 0 011.32-.306 3.127 3.127 0 003.49-1.682c.21-.428.597-.734 1.062-.84.465-.106.947.002 1.322.296a3.126 3.126 0 003.874 0 1.566 1.566 0 011.322-.296c.465.106.852.412 1.062.84a3.127 3.127 0 003.49 1.682c.466-.103.947.008 1.32.306.373.297.588.74.592 1.218a3.127 3.127 0 002.416 3.029c.464.11.848.418 1.055.848.207.43.209.923.005 1.354a3.127 3.127 0 00.862 3.778c.371.3.584.745.584 1.222s-.213.922-.584 1.222a3.127 3.127 0 00-.862 3.778c.204.43.202.925-.005 1.354-.207.43-.591.739-1.056.848a3.127 3.127 0 00-2.415 3.03c-.004.476-.22.92-.592 1.218a1.566 1.566 0 01-1.32.306 3.126 3.126 0 00-3.49 1.68c-.21.429-.597.735-1.062.842zm8.958 3.448a.782.782 0 00-.96.554l-.801 3.028-4.405-7.63c.37-.353.9-.513 1.423-.397a3.121 3.121 0 002.63-.61c.446-.355.778-.815.975-1.33l4.16 7.205-3.022-.82z" fill="#0B225C"/><path d="M30.874 15.937C30.874 9.907 25.968 5 19.937 5 13.907 5 9 9.906 9 15.937c0 4.588 2.897 8.721 7.208 10.285a.782.782 0 00.533-1.47 9.404 9.404 0 01-6.178-8.815c0-5.17 4.205-9.375 9.374-9.375 5.17 0 9.375 4.206 9.375 9.375a9.404 9.404 0 01-6.178 8.816.781.781 0 00.532 1.469 10.97 10.97 0 007.208-10.285z" fill="#0B225C"/><path d="M20 25.255a.787.787 0 00-.552.229.787.787 0 00-.23.552.787.787 0 00.781.781.787.787 0 00.553-.229.787.787 0 00.23-.552.787.787 0 00-.23-.552.787.787 0 00-.552-.23zm-2.43-13.113v8.273h-1.915v-6.737H14v-1.536h3.57zm5.04 8.414c-.685 0-1.295-.169-1.831-.508-.536-.339-.957-.827-1.265-1.465-.299-.646-.449-1.414-.449-2.305 0-.89.15-1.654.45-2.292.307-.647.728-1.139 1.264-1.478.536-.339 1.146-.508 1.832-.508.685 0 1.296.17 1.832.508.535.339.953.831 1.252 1.478.308.638.461 1.402.461 2.292 0 .89-.153 1.659-.46 2.305-.3.638-.718 1.126-1.253 1.465-.536.339-1.147.508-1.832.508zm0-1.619c.505 0 .899-.216 1.183-.65.291-.433.437-1.103.437-2.009 0-.906-.146-1.576-.437-2.009-.284-.433-.678-.65-1.182-.65-.497 0-.89.217-1.182.65-.284.433-.425 1.103-.425 2.01 0 .905.141 1.575.425 2.008.291.434.685.65 1.182.65z" fill="#0B225C"/></svg>