<svg width="40" height="40" viewBox="0 0 40 40" fill="none" xmlns="http://www.w3.org/2000/svg"><g clip-path="url(#clip0_10:175)" fill="#0B225C"><path d="M34.884 31.85a2.326 2.326 0 00-1.663-1.414l-5.572-3.575c-.083-.084-1.08-.832-2.578-.582-1.247.25-2.411 1.08-3.326 2.578-.416.582-.915.748-1.164.748-.749 0-2.329-.333-5.406-3.493l-.166-.166c-.416-.333-2.578-2.994-3.909-4.574 0-.083-1.58-2.412.5-4.075 2.577-2.162 1.912-4.49 1.247-5.405l-3.66-5.405c-.664-.915-2.16-2.247-3.657-1.414-.416.166-3.66 1.83-4.907 5.488-.915 2.662-.582 5.738 1.081 9.065 4.824 9.73 18.545 18.544 19.127 18.877l.083.083C21.08 38.67 24.157 40 27.4 40c2.245 0 4.657-.665 6.154-2.827 1.496-2.246 1.912-4.075 1.33-5.323zm-2.744 4.325c-2.661 4.158-9.896 1.247-10.561.914-.915-.665-13.971-9.23-18.545-18.212-1.414-2.91-1.746-5.571-.998-7.817C3.117 7.9 6.111 6.486 6.111 6.486l.083-.083c.333-.25 1.164.582 1.414.915l3.659 5.405c.083.084 1.08 1.497-.915 3.16-2.578 2.08-1.663 4.99-.748 6.32.415.5 3.492 4.325 4.074 4.824l.167.166c2.744 2.91 4.906 4.158 6.736 3.992.997-.083 1.83-.582 2.411-1.497.666-1.081 1.414-1.663 2.162-1.83.749-.083 1.331.25 1.414.333l5.738 3.66.166.082h.167s.499.084.665.5c.166.332.333 1.413-1.164 3.742zm7.734-19.709C39.874 7.4 32.389 0 23.159 0c-4.241 0-8.316 1.58-11.393 4.49l1.164 1.248a15.262 15.262 0 0110.312-3.992c8.316 0 15.052 6.653 15.052 14.803 0 3.825-1.497 7.567-4.241 10.312l1.164 1.164c3.077-3.077 4.74-7.152 4.657-11.56z"/><path d="M24.076.948l-1.663.018.043 3.908 1.663-.018-.043-3.908zm15.02 14.809l-4.074.043.017 1.663 4.075-.043-.018-1.663zm-16.936.875l1.664-1.663c.499-.5.831-.915.998-1.248.166-.332.25-.665.25-.998 0-.665-.25-1.164-.666-1.496-.416-.416-.915-.582-1.497-.582-.582 0-1.081.083-1.414.332-.332.166-.665.5-.997.998l.914.582c.333-.582.832-.915 1.414-.915.333 0 .582.084.832.333.25.25.332.499.332.748 0 .25-.166.582-.332.832-.25.25-.582.582-.998 1.08l-2.08 2.163v.998h4.74v-1.164h-3.16zm8.067-1.663V13.72h-1.08v1.331h-1.664l2.495-4.158H28.73l-2.578 4.158v.998h2.994v1.746h1.081V16.05h.832v-1.081h-.832z"/></g><defs><clipPath id="clip0_10:175"><path fill="#fff" d="M0 0h40v40H0z"/></clipPath></defs></svg>