<svg width="40" height="40" viewBox="0 0 40 40" fill="none" xmlns="http://www.w3.org/2000/svg"><g clip-path="url(#clip0_10:194)" fill="#0B225C"><path d="M16.953 28.516a.782.782 0 100-1.564.782.782 0 000 1.564z"/><path d="M.307 30.318l9.375 9.375c.305.305.8.305 1.105 0l5.156-5.156a.781.781 0 000-1.105l-.229-.229h11.262c.989 0 1.933-.37 2.66-1.046l9.479-8.883a3.034 3.034 0 00.747-3.33A3.007 3.007 0 0038 18.197a3.007 3.007 0 00-2.536.31c-.005.002-2.104 1.38-2.104 1.38-.014-4.235-2.574-8.751-6.097-10.784a2.35 2.35 0 00-1.035-3.77l-.116-.036 2.011-3.613a.78.78 0 00-.464-1.13 15.946 15.946 0 00-4.455-.632 15.96 15.96 0 00-4.454.632.782.782 0 00-.465 1.13l2.011 3.613-.117.036a2.349 2.349 0 00-1.493 2.96c.1.305.26.578.462.81-3.576 2.063-6.1 6.625-6.1 10.819 0 .114.003.227.006.34a9.599 9.599 0 00-3.794 2.035l-2.374 2.077-.317-.317a.781.781 0 00-1.105 0L.307 29.213a.78.78 0 000 1.105zM20.143 1.811a14.438 14.438 0 016.12 0l-1.74 3.127a9.525 9.525 0 00-2.639 0l-1.74-3.127zm.523 5.007a8.084 8.084 0 015.073-.001c.41.135.633.578.498.987a.776.776 0 01-.694.536 7.643 7.643 0 00-4.68-.002.778.778 0 01-.694-.533.783.783 0 01.497-.987zm.432 3.09a6.096 6.096 0 014.116-.033c3.63 1.248 6.583 5.755 6.583 10.047 0 .364-.023.71-.068 1.034l-3.755 2.464a3.107 3.107 0 00-2.427-1.154h-1.563v-.916a2.348 2.348 0 001.563-2.21 2.346 2.346 0 00-2.344-2.343.782.782 0 010-1.563c.277 0 .569.142.845.409a.782.782 0 001.087-1.123 3.014 3.014 0 00-1.15-.72v-.91a.781.781 0 10-1.563 0v.916a2.348 2.348 0 00-1.563 2.21 2.346 2.346 0 002.344 2.343.782.782 0 010 1.563c-.334 0-.694-.21-1.014-.591a.781.781 0 00-1.196 1.005c.417.497.909.843 1.429 1.018v.912h-.26c-.384 0-.556-.25-.827-.425a9.661 9.661 0 00-5.758-1.92 9.6 9.6 0 00-.967.05v-.05c0-4.231 2.91-8.723 6.488-10.013zm-10.81 13.564a8.038 8.038 0 015.29-1.988c1.726 0 3.438.57 4.82 1.606.198.117.753.738 1.764.738h3.385a1.563 1.563 0 010 3.125h-5.469a.781.781 0 100 1.563h5.469a3.129 3.129 0 003.08-3.655l7.671-5.034a1.451 1.451 0 012.113.697 1.444 1.444 0 01-.363 1.608l-9.477 8.882a2.337 2.337 0 01-1.595.627H14.152l-6.16-6.16 2.296-2.009zm-4.272 2.242l8.27 8.27-4.052 4.052-8.27-8.27 4.052-4.052z"/></g><defs><clipPath id="clip0_10:194"><path fill="#fff" d="M0 0h40v40H0z"/></clipPath></defs></svg>