<svg width="40" height="40" viewBox="0 0 40 40" fill="none" xmlns="http://www.w3.org/2000/svg"><g clip-path="url(#clip0_10:109)" fill="#0B225C"><path d="M11.355 24.85a.783.783 0 10-1.096 1.117l2.065 2.025-3.986-.73a.783.783 0 00-.695 1.324l3.779 3.778a.78.78 0 001.107 0 .783.783 0 000-1.107l-2.003-2.003 3.784.693c.39.071.755-.099.93-.432.178-.34.105-.747-.192-1.043l-3.693-3.623zm11.188-6.357l.849-.848a.783.783 0 10-1.107-1.107l-.849.848-.736-.736.97-.97a.783.783 0 00-1.108-1.107l-1.523 1.523a.783.783 0 000 1.107l3.758 3.758a.78.78 0 001.107 0 .783.783 0 000-1.107l-1.36-1.361zm5.314-3.706l-1.027 1.027-.769-.768.91-.91a.783.783 0 10-1.106-1.107l-.91.91-.77-.768 1.028-1.027a.783.783 0 10-1.107-1.107l-1.58 1.58a.783.783 0 000 1.107l3.75 3.751a.783.783 0 001.108 0l1.58-1.58a.783.783 0 10-1.107-1.107zm1.548-5.299l-.91.91-.769-.768 1.027-1.027a.783.783 0 10-1.107-1.107l-1.58 1.58a.783.783 0 000 1.108l3.75 3.75a.78.78 0 001.108 0l1.58-1.58a.782.782 0 10-1.107-1.106l-1.027 1.027-.768-.769.91-.91a.783.783 0 10-1.107-1.108zM14.03 21.077a3.463 3.463 0 000 4.893 3.45 3.45 0 002.447 1.011c.886 0 1.772-.337 2.446-1.011a3.463 3.463 0 000-4.893 3.463 3.463 0 00-4.892 0zm3.786 3.786a1.896 1.896 0 01-2.678 0 1.896 1.896 0 010-2.679c.369-.37.854-.554 1.339-.554a1.892 1.892 0 011.34 3.233z"/><path d="M39.542 8.43L31.57.459A1.555 1.555 0 0030.463 0c-.418 0-.81.163-1.107.459l-2.615 2.615a18.368 18.368 0 00-7.345-1.279.783.783 0 10.052 1.565 16.795 16.795 0 016.076.931l-2.572 2.572a13.577 13.577 0 00-6.39.117 13.443 13.443 0 00-9.583 9.583 13.576 13.576 0 00-.117 6.39L4.29 25.525a16.64 16.64 0 01-.667-8.529 16.55 16.55 0 014.605-8.77A16.593 16.593 0 0112.89 4.94a.783.783 0 00-.669-1.416 18.156 18.156 0 00-5.1 3.597 18.109 18.109 0 00-5.04 9.595 18.196 18.196 0 00.993 10.025L.458 29.357c-.61.61-.61 1.603 0 2.214l7.972 7.971a1.565 1.565 0 002.214 0l2.616-2.616a18.158 18.158 0 006.726 1.292c1.1 0 2.202-.1 3.299-.3a18.112 18.112 0 009.596-5.037 18.11 18.11 0 005.037-9.596c.618-3.39.274-6.844-.993-10.025l2.617-2.616c.61-.61.61-1.604 0-2.214zM8.494 16.96c.532-2.03 1.6-3.888 3.089-5.377a11.874 11.874 0 015.377-3.089 12.008 12.008 0 014.643-.282L8.211 21.604a12.005 12.005 0 01.283-4.644zm27.884 6.044a16.552 16.552 0 01-4.604 8.77 16.553 16.553 0 01-8.77 4.605 16.64 16.64 0 01-8.528-.669l2.572-2.572a13.55 13.55 0 006.39-.117 13.442 13.442 0 009.583-9.583 13.59 13.59 0 00.117-6.39l2.572-2.572a16.639 16.639 0 01.668 8.528zm-4.59-4.607a12.008 12.008 0 01-.281 4.644 11.875 11.875 0 01-3.09 5.377 11.875 11.875 0 01-10.02 3.371l13.392-13.392zm6.647-8.86L9.537 38.435l-7.972-7.971L30.463 1.565l7.973 7.971-.001.001z"/><path d="M16.042 3.827a.781.781 0 10-.265-1.54.781.781 0 00.265 1.54z"/></g><defs><clipPath id="clip0_10:109"><path fill="#fff" d="M0 0h40v40H0z"/></clipPath></defs></svg>