<svg width="392" height="84" viewBox="0 0 392 84" fill="none" xmlns="http://www.w3.org/2000/svg"><path d="M64.25 40.002c.14 1 1.475 1.22 1.922.315a.962.962 0 00.078-.284C73.358-6.162 7.078-15.8.017 30.071a1.695 1.695 0 00-.017.236c0 1.538 1.882 2.26 2.89 1.107l8.047-9.193a1.707 1.707 0 011.285-.586c.947 0 1.716.777 1.716 1.735v.1c0 .44-.156.864-.44 1.197L2.18 37.937a6.376 6.376 0 00-1.079 1.794A6.438 6.438 0 00.7 42.89l.12.97c.116.944.364 1.867.735 2.742l.89 2.099a.58.58 0 00.954.18l16.593-17.183a4.54 4.54 0 01.413-.387c.228-.19.492-.327.764-.445 1.194-.517 2.489.485 2.305 1.786-.05.36-.216.694-.471.952L7.056 50.123c-1.014 1.024-1.414 2.377-1.258 3.476.115.814.443 1.583.952 2.225l1.214 1.535a3.72 3.72 0 005.13.164l15.589-15.69a5.41 5.41 0 011.162-.89c.612-.349 1.303-.646 1.983-.465 1.024.271 1.677 1.16 1.296 2.314-.221.672-.646 1.245-1.145 1.741l-17.045 16.99a2.91 2.91 0 00-.996 2.196c0 .45.103.893.302 1.295l.418.845c.183.37.399.722.645 1.053l.873 1.177a2.9 2.9 0 003.965.686l2.757-1.857 6.47-5.031 7.468-6.038 4.977-4.528 2.025-2.047a8.479 8.479 0 001.57-2.202 8.55 8.55 0 00.885-3.79v-.152a9.205 9.205 0 00-.73-3.593l-.113-.268a10.562 10.562 0 00-1.737-2.789l-2.397-2.77-.928-1.312a10.835 10.835 0 01-1.895-7.565l.093-.745a8.379 8.379 0 011.318-3.584l.308-.467a5.48 5.48 0 011.514-1.53 5.412 5.412 0 016.726.537l3.317 3.094 5.973 5.535 2.372 2.397a12.423 12.423 0 012.71 4.154l.394.996.497 2.013.498 2.516.036.253z" fill="#fff"/><path d="M39.788 79.047l-2.952 2.966a5.118 5.118 0 01-6.857-.128l-3.482-3.25c-3.082-2.873-2.646-7.915.88-10.207l5.974-4.529 6.969-6.037 5.973-6.54 1.496-1.764a9.86 9.86 0 002.047-4.006 9.915 9.915 0 00.215-3.597l-.035-.281a11.414 11.414 0 00-1.097-3.661l-.634-1.283-.965-1.706a23.787 23.787 0 00-2.352-3.423l-.758-.92a8.3 8.3 0 01-.731-1.041l-.434-.73a5.25 5.25 0 01-.734-2.679v-.266c0-.855.25-1.69.72-2.401l.804-1.22a1.561 1.561 0 012.421-.242l1.033 1.043 1.99 2.012.53.467a64.453 64.453 0 016.44 6.578l1.302 1.579a16.175 16.175 0 012.016 3.116l.018.035a15.82 15.82 0 011.642 7.03v1.012c0 1.876-.228 3.745-.678 5.565l-.318 1.285-.078.236a26.845 26.845 0 01-2.41 5.298l-1.494 2.516-3.485 4.529-3.484 4.025-3.982 4.528-2.987 3.522-2.523 2.57zm60.059-35.68h-5.391l-2.522 13.226c-.434 2.253-.754 3.33-1.507 4.245-.435.523-1.247 1.274-2.637 1.274-.899 0-1.682-.327-2.146-.817-.434-.457-.753-1.273-.753-2.35 0-1.111.232-2.222.319-2.614l2.464-12.964h-5.391l-2.261 11.756c-.174.882-.522 2.744-.522 4.31 0 2.875.985 4.344 1.768 5.128 1.797 1.796 4.347 2.057 6.029 2.057 1.884 0 4.55-.294 6.666-2.253 2.116-1.96 2.754-4.54 3.246-7.086l2.638-13.912zm1.752 22.86h5.217l1.478-7.838c.29-1.6.696-2.613 1.363-3.429.521-.62 1.246-1.24 2.521-1.24.841 0 1.304.26 1.565.554.319.36.464.947.464 1.502 0 .49-.116 1.143-.348 2.482l-1.449 7.968h5.391l1.391-7.935c.203-1.241.406-2.547.406-3.592 0-1.241-.203-2.874-1.189-4.213-.666-.914-1.681-1.665-3.622-1.665-1.363 0-2.406.359-3.247.849-.637.36-1.362.914-2.463 2.318h-.058l.405-2.776h-4.84c-.058.72-.231 2.188-.637 4.442l-2.348 12.572zm25.699-19.79h5.217l.811-4.31h-5.217l-.811 4.31zm-3.739 19.79h5.217l3.217-17.015h-5.217l-3.217 17.014zm12.425-12.9h2.782l-.898 4.768c-.145.784-.464 2.253-.464 3.625 0 1.11.173 2.612 1.275 3.69.869.816 2.232 1.208 3.507 1.208.811 0 2.377-.196 3.246-.327l.58-3.885a3.862 3.862 0 01-1.797.49c-.377 0-.812-.099-1.101-.392-.261-.23-.493-.686-.493-1.405 0-.947.319-2.416.435-3.037l.898-4.735h3.797l.637-4.114h-3.593l1.043-5.323-5.507 1.665-.725 3.657h-2.985l-.637 4.115zm33.644-4.114h-5.536l-5.13 10.744h-.058l-1.362-10.745h-5.304l3.333 16.95c-.203.652-.579 1.37-.927 1.795-.551.653-1.305 1.013-2.116 1.013a5.985 5.985 0 01-2.377-.49l-1.101 4.277c.783.23 1.362.36 1.739.458.405.098 1.13.26 2.174.26 2.057 0 3.333-.685 4.173-1.403.812-.686 1.623-1.698 2.58-3.592l9.912-19.268zm13.353 17.013h5.478l3.449-18.352h5.072l.87-4.507h-15.564l-.87 4.507h5.014l-3.449 18.352zm15.84-17.014c-.058.72-.231 2.188-.637 4.442l-2.348 12.572h5.217l1.478-7.837c.145-.784.493-2.188 1.275-3.299.551-.75 1.363-1.404 2.928-1.404.376 0 .725.066 1.13.196.348.131.667.294.957.556l1.188-5.193a5.138 5.138 0 00-2.029-.424 4.237 4.237 0 00-2.985 1.175 8.092 8.092 0 00-1.855 2.71h-.058l.579-3.494h-4.84zm31.312 0h-5.217l-1.478 7.838c-.174.882-.435 2.22-1.217 3.266-.87 1.175-2.029 1.404-2.667 1.404-.406 0-.985-.098-1.391-.457-.492-.425-.609-1.045-.609-1.503 0-.26.001-.816.319-2.58l1.449-7.968h-5.391l-1.391 7.936c-.29 1.568-.406 2.417-.406 3.592 0 1.11.058 2.841 1.044 4.18.609.817 1.71 1.698 3.652 1.698.985 0 2.318-.228 3.391-.881.261-.164 1.478-.915 2.435-2.286h.058l-.406 2.775h4.839c.088-.914.233-2.22.639-4.44l2.347-12.574zm15.792 12.344a7.76 7.76 0 01-3.246.752c-.726 0-1.971-.163-2.811-1.11-.755-.85-.898-2.025-.898-2.776 0-1.34.464-2.907 1.304-3.887.492-.587 1.536-1.404 3.303-1.404.552 0 1.913.098 3.363.915l1.129-4.082c-1.187-.555-1.855-.719-2.462-.85-.957-.195-1.653-.293-2.291-.293-1.911 0-4.725.424-7.043 2.906-2.318 2.482-2.695 5.323-2.695 7.217 0 1.665.406 3.625 1.942 5.388 1.073 1.241 2.666 2.286 5.477 2.286.842 0 2.522-.065 4.175-.653l.753-4.409zm4.191 4.67h5.217l1.595-8.425h.058l3.101 8.425h5.796l-3.942-8.817 6.261-8.197h-5.941l-5.015 7.152h-.058l2.755-14.63h-5.217l-4.61 24.492zm23.267-19.79h5.217l.811-4.31h-5.217l-.811 4.31zm-3.739 19.79h5.217l3.217-17.014h-5.217l-3.217 17.014zm11.236 0h5.217l1.479-7.837c.291-1.6.696-2.613 1.362-3.429.521-.62 1.247-1.24 2.522-1.24.84 0 1.304.26 1.565.554.319.36.464.947.464 1.502 0 .49-.116 1.143-.349 2.482l-1.45 7.968h5.392l1.391-7.935c.204-1.241.406-2.547.406-3.592 0-1.241-.202-2.874-1.188-4.213-.667-.914-1.682-1.665-3.624-1.665-1.362 0-2.403.359-3.246.849-.636.36-1.362.914-2.463 2.318h-.056l.405-2.776h-4.841c-.058.72-.233 2.188-.638 4.442l-2.348 12.572zm22.685 6.172c2.347.751 3.507 1.078 5.914 1.078 2.694 0 5.129-.457 6.695-1.861 1.998-1.796 2.607-4.899 2.983-6.727l2.319-11.593.956-4.083h-4.838l-.667 3.103h-.059a5 5 0 00-1.942-2.678c-.956-.653-1.971-.816-2.986-.816-1.216 0-3.68.13-5.71 2.318-1.651 1.796-2.665 4.637-2.665 7.642 0 1.339.175 3.69 1.709 5.486.668.75 2.058 1.96 4.464 1.96 1.044 0 1.971-.23 2.899-.817a6.341 6.341 0 002.029-2.155l.058.065-.145.62c-.291 1.176-.639 2.842-1.682 3.92-.666.685-1.797 1.306-3.768 1.306-2.057 0-3.506-.654-4.55-1.34l-1.014 4.573zm11.941-16.001c0 1.175-.376 2.58-.898 3.461-.609 1.046-1.595 1.862-2.928 1.862-.869 0-1.566-.36-2-.882-.609-.718-.724-1.633-.724-2.253 0-1.47.523-2.809.928-3.527.898-1.535 2.085-1.73 2.84-1.73.724 0 1.508.162 2.085.816.493.587.697 1.371.697 2.253zm22.839-13.03l-4.319 22.86h5.392l4.319-22.86h-5.392zm7.258 22.86h5.217l1.478-7.838c.289-1.6.694-2.613 1.362-3.429.522-.62 1.245-1.24 2.522-1.24.84 0 1.304.26 1.564.554.32.36.464.947.464 1.502 0 .49-.115 1.143-.348 2.482l-1.449 7.968h5.392l1.391-7.935c.204-1.241.405-2.547.405-3.592 0-1.241-.201-2.874-1.187-4.213-.667-.914-1.682-1.665-3.624-1.665-1.362 0-2.406.359-3.246.849-.639.36-1.362.914-2.464 2.318h-.058l.408-2.776h-4.841c-.059.72-.233 2.188-.639 4.442l-2.347 12.572zm35.031-4.67a7.766 7.766 0 01-3.245.75c-.726 0-1.972-.163-2.812-1.11-.755-.849-.898-2.024-.898-2.775 0-1.34.464-2.907 1.304-3.887.493-.587 1.536-1.404 3.304-1.404.551 0 1.913.098 3.362.915l1.129-4.082c-1.187-.555-1.855-.719-2.462-.85-.956-.195-1.653-.293-2.292-.293-1.913 0-4.724.424-7.042 2.906-2.319 2.482-2.695 5.323-2.695 7.217 0 1.665.406 3.625 1.942 5.388 1.073 1.241 2.666 2.286 5.477 2.286.84 0 2.522-.065 4.173-.653l.755-4.409zm4.424 4.67h4.897l.985-5.291h-4.896l-.986 5.29z" fill="#fff"/><path d="M99.847 43.367l.567.137.149-.79h-.716v.653zm-5.391 0v-.653h-.469l-.098.516.567.137zm-4.029 17.471l.423.447.002-.002-.425-.445zm-5.217-4.507l.562.159.003-.01.002-.012-.567-.137zm2.464-12.964l.566.137.15-.79h-.716v.653zm-5.391 0v-.653h-.468l-.099.515.567.138zm-2.26 11.756l.565.142v-.003l-.566-.139zm17.186 2.156l.567.139v-.003l-.567-.136zm2.638-14.565h-5.391v1.306h5.39v-1.306zm-5.958.516l-2.522 13.226 1.134.276 2.521-13.227-1.133-.275zm-2.522 13.226c-.435 2.258-.73 3.168-1.365 3.938l.85.889c.873-1.06 1.215-2.303 1.649-4.551l-1.134-.276zm-1.363 3.936c-.37.444-1.038 1.067-2.214 1.067v1.306c1.606 0 2.56-.88 3.06-1.48l-.846-.893zm-2.214 1.067c-.79 0-1.417-.29-1.749-.64l-.793.953c.596.63 1.533.993 2.542.993v-1.306zm-1.749-.64c-.29-.306-.57-.933-.57-1.875h-1.16c0 1.213.359 2.22.937 2.828l.793-.953zm-.57-1.875c0-1.026.216-2.071.301-2.454l-1.124-.317c-.09.401-.336 1.577-.336 2.771h1.159zm.306-2.476l2.463-12.964-1.133-.273-2.464 12.964 1.134.273zm1.897-13.754h-5.391v1.306h5.39v-1.306zm-5.958.515l-2.26 11.756 1.132.277 2.261-11.757-1.133-.276zm-2.26 11.753c-.173.878-.535 2.804-.535 4.452h1.16c0-1.487.332-3.284.507-4.17l-1.132-.282zm-.535 4.452c0 3.077 1.067 4.719 1.962 5.615l.77-.976c-.67-.671-1.573-1.968-1.573-4.639h-1.16zm1.962 5.615c1.969 1.968 4.714 2.222 6.414 2.222v-1.306c-1.662 0-4.018-.267-5.643-1.892l-.77.976zm6.414 2.222c1.918 0 4.758-.293 7.034-2.402l-.736-1.009c-1.955 1.81-4.448 2.105-6.298 2.105v1.306zm7.034-2.402c2.28-2.111 2.95-4.891 3.445-7.451l-1.133-.279c-.49 2.535-1.097 4.914-3.048 6.721l.736 1.01zm3.445-7.454l2.638-13.911-1.134-.273-2.638 13.911 1.134.273zm3.823 8.812l-.567-.135-.147.787h.714v-.653zm5.217 0v.652h.47l.097-.517-.567-.135zm1.478-7.838l.568.136v-.005l-.568-.13zm1.363-3.429l-.421-.45-.003.004-.003.004.427.442zm4.202 3.298l.568.131.001-.005-.569-.126zm-1.449 7.968l-.568-.13-.142.783h.71v-.653zm5.391 0v.653h.476l.093-.526-.569-.126zm1.391-7.935l.569.127.001-.009-.57-.118zm-.783-7.805l-.448.415.002.002.446-.417zm-6.869-.816l.26.584.007-.004-.267-.58zm-2.463 2.319v.652h.261l.173-.22-.434-.432zm-.058 0l-.572-.107-.111.76h.683v-.654zm.406-2.776l.572.106.111-.76h-.683v.654zm-4.841 0v-.654h-.529l-.048.595.577.058zm-.637 4.44l.567.135.001-.004-.568-.13zm-2.348 13.226h5.217v-1.306h-5.217v1.306zm5.784-.517l1.479-7.837-1.135-.272-1.478 7.838 1.134.271zm1.479-7.842c.278-1.534.651-2.42 1.221-3.118l-.853-.884c-.763.934-1.201 2.073-1.504 3.74l1.136.262zm1.216-3.11c.452-.539 1.034-1.038 2.1-1.038v-1.306c-1.485 0-2.351.742-2.942 1.445l.842.898zm2.1-1.038c.731 0 1.031.224 1.155.364l.82-.923c-.397-.448-1.025-.747-1.975-.747v1.306zm1.155.364c.17.191.294.58.294 1.04h1.16c0-.65-.166-1.436-.634-1.963l-.82.923zm.294 1.04c0 .41-.098.98-.337 2.357l1.138.25c.225-1.3.359-2.036.359-2.607h-1.16zm-.335 2.351l-1.45 7.968 1.136.263 1.449-7.969-1.135-.262zm-.882 8.752h5.391v-1.306h-5.391v1.306zm5.96-.526l1.391-7.935-1.137-.254-1.392 7.936 1.138.253zm1.392-7.944c.201-1.228.416-2.595.416-3.71h-1.16c0 .974-.191 2.22-.396 3.474l1.14.236zm.416-3.71c0-1.306-.211-3.12-1.322-4.63l-.893.834c.86 1.169 1.055 2.62 1.055 3.796h1.16zm-1.32-4.627c-.782-1.072-1.963-1.904-4.071-1.904v1.306c1.775 0 2.622.67 3.174 1.427l.897-.83zm-4.071-1.904c-1.46 0-2.595.386-3.513.922l.533 1.16c.762-.445 1.715-.776 2.98-.776v-1.306zm-3.506.918c-.717.404-1.498 1.016-2.639 2.47l.869.865c1.063-1.355 1.731-1.853 2.289-2.167l-.519-1.168zm-2.204 2.25h-.058v1.305h.058v-1.305zm.514.759l.406-2.776-1.144-.213-.406 2.776 1.144.213zm-.166-3.535h-4.841v1.305h4.841V48.56zm-5.418.593c-.055.689-.225 2.134-.628 4.371l1.136.26c.409-2.27.586-3.764.647-4.512l-1.155-.118zm-.627 4.367l-2.348 12.572 1.135.269 2.347-12.573-1.134-.268zm23.918-7.083l-.567-.136-.149.789h.716v-.653zm5.217 0v.653h.469l.098-.518-.567-.135zm.811-4.31l.567.135.149-.789h-.716v.653zm-5.217 0v-.654h-.469l-.098.518.567.135zm-4.55 24.1l-.567-.137-.149.79h.716v-.653zm5.217 0v.652h.469l.098-.517-.567-.135zm3.217-17.015l.567.137.149-.79h-.716v.654zm-5.217 0v-.653h-.469l-.098.518.567.136zm.522-2.122h5.217v-1.306h-5.217v1.306zm5.784-.518l.811-4.31-1.134-.271-.811 4.31 1.134.271zm.244-5.099h-5.217v1.306h5.217v-1.306zm-5.784.518l-.811 4.31 1.134.271.811-4.31-1.134-.271zm-3.983 24.888h5.217v-1.306h-5.217v1.306zm5.784-.517l3.217-17.013-1.134-.272-3.217 17.013 1.134.272zm2.65-17.802h-5.217v1.305h5.217V48.56zm-5.784.517l-3.217 17.013 1.134.272 3.217-17.013-1.134-.272zm9.775 4.25l-.571-.112-.119.765h.69v-.653zm2.782 0l.567.136.149-.79h-.716v.654zm-.898 4.768l-.567-.136-.001.003.568.133zm.811 7.315l-.38.493.004.004.005.005.371-.502zm6.753.882l.077.647.424-.063.071-.476-.572-.109zm.58-3.886l.571.108.19-1.267-1.02.575.259.584zm-2.898.098l.387-.486-.015-.016-.016-.014-.356.516zm.84-9.177v-.653h-.469l-.098.517.567.136zm3.797 0v.653h.488l.083-.54-.571-.113zm.637-4.114l.572.112.118-.766h-.69v.654zm-3.593 0l-.566-.141-.156.793h.722v-.653zm1.043-5.323l.566.14.206-1.05-.922.279.15.63zm-5.507 1.665l-.15-.63-.339.102-.076.386.565.142zm-.724 3.657v.653h.464l.101-.51-.565-.142zm-2.986 0v-.653h-.487l-.084.541.571.112zm-.637 4.768h2.782v-1.306h-2.782v1.306zm2.215-.788l-.898 4.767 1.133.272.899-4.768-1.134-.271zm-.899 4.77c-.138.749-.476 2.302-.476 3.758h1.16c0-1.287.3-2.673.451-3.492l-1.135-.266zm-.476 3.758c0 1.166.179 2.915 1.475 4.183l.761-.986c-.907-.887-1.076-2.142-1.076-3.197h-1.16zm1.484 4.192c1.01.948 2.524 1.36 3.878 1.36v-1.307c-1.196 0-2.407-.373-3.136-1.057l-.742 1.004zm3.878 1.36c.855 0 2.456-.203 3.323-.333l-.153-1.295c-.873.132-2.402.321-3.17.321v1.306zm3.818-.872l.579-3.886-1.143-.217-.58 3.886 1.144.217zm-.251-4.578a3.336 3.336 0 01-1.538.42v1.307c.542 0 1.328-.149 2.056-.56l-.518-1.167zm-1.538.42c-.317 0-.579-.087-.714-.224l-.775.971c.445.452 1.053.56 1.489.56v-1.307zm-.745-.254c-.093-.081-.269-.33-.269-.889h-1.16c0 .878.288 1.544.717 1.92l.712-1.031zm-.269-.889c0-.858.296-2.227.422-2.902l-1.134-.271c-.106.566-.448 2.138-.448 3.173h1.16zm.422-2.902l.898-4.733-1.134-.273-.898 4.735 1.134.27zm.331-4.217h3.797v-1.306h-3.797v1.306zm4.368-.54l.638-4.115-1.142-.225-.638 4.115 1.142.224zm.066-4.88h-3.593v1.305h3.593V48.56zm-3.028.794l1.044-5.323-1.132-.282-1.043 5.323 1.131.282zm.328-6.095l-5.507 1.666.3 1.261 5.507-1.666-.3-1.261zm-5.922 2.154l-.725 3.657 1.131.285.725-3.658-1.131-.284zm-.159 3.147h-2.986v1.305h2.986V48.56zm-3.557.54l-.637 4.115 1.142.224.637-4.114-1.142-.225zm33.578.112l.502.328.504-.98h-1.006v.652zm-5.536 0v-.653h-.347l-.163.344.51.31zm-5.13 10.745v.653h.347l.164-.344-.511-.31zm-.058 0l-.574.092.072.56h.502v-.652zm-1.362-10.745l.574-.092-.071-.56h-.503v.652zm-5.304 0v-.653h-.722l.157.795.565-.142zm3.333 16.95l.547.215.055-.176-.036-.181-.566.141zm-.927 1.795l.42.45.003-.003.003-.004-.426-.443zm-4.493.523l.201-.613-.584-.243-.173.674.556.182zm-1.101 4.277l-.556-.181-.167.645.577.169.146-.633zm1.739.458l-.13.636.004.001.005.001.121-.638zm6.347-1.143l-.347-.523-.003.002.35.52zm2.58-3.592l-.501-.328-.003.004.504.324zm9.912-19.92h-5.536v1.305h5.536V48.56zm-6.046.343l-5.13 10.744 1.021.619 5.13-10.744-1.021-.619zm-4.62 10.4h-.058v1.307h.058v-1.307zm.516.561l-1.362-10.744-1.148.185 1.362 10.744 1.148-.185zm-1.936-11.304h-5.304v1.305h5.304V48.56zm-5.869.794l3.332 16.948 1.132-.282-3.333-16.949-1.131.283zm3.351 16.591c-.18.58-.518 1.218-.806 1.57l.852.885c.407-.498.823-1.296 1.048-2.023l-1.094-.432zm-.8 1.563c-.439.52-1.04.809-1.696.809v1.306c.967 0 1.873-.43 2.536-1.216l-.84-.9zm-1.696.809a5.462 5.462 0 01-2.176-.45l-.402 1.225c.842.352 1.665.53 2.578.53v-1.305zm-2.933-.02l-1.101 4.279 1.112.364 1.102-4.278-1.113-.365zm-.691 5.093c.792.231 1.397.368 1.755.461l.26-1.273c-.395-.103-.95-.227-1.723-.453l-.292 1.265zm1.764.463a9.344 9.344 0 002.295.276v-1.306a8.338 8.338 0 01-2.052-.247l-.243 1.277zm2.295.276c2.187 0 3.585-.734 4.523-1.537l-.7-1.04c-.743.634-1.895 1.27-3.823 1.27v1.307zm4.521-1.535c.893-.754 1.753-1.844 2.736-3.791l-1.008-.647c-.93 1.841-1.693 2.776-2.423 3.393l.695 1.045zm2.733-3.786l9.913-19.268-1.003-.655-9.912 19.267 1.002.656zm22.764-2.582l-.567-.135-.148.788h.715v-.653zm5.479 0v.653h.469l.098-.517-.567-.135zm3.448-18.352v-.653h-.469l-.098.518.567.135zm5.072 0v.653h.468l.099-.515-.567-.138zm.87-4.507l.567.14.152-.793h-.719v.653zm-15.564 0v-.653h-.467l-.1.515.567.138zm-.87 4.507l-.566-.139-.152.792h.718v-.653zm5.015 0l.567.135.148-.788h-.715v.653zm-3.45 19.005h5.479v-1.306h-5.479v1.306zm6.046-.517l3.449-18.353-1.135-.27-3.449 18.352 1.135.271zm2.881-17.835h5.072v-1.306h-5.072v1.306zm5.639-.515l.87-4.506-1.134-.277-.869 4.506 1.133.277zm.303-5.298h-15.564v1.306h15.564v-1.306zm-16.131.515l-.869 4.506 1.133.277.87-4.506-1.134-.277zm-.303 5.298h5.015v-1.306h-5.015v1.306zm4.448-.788l-3.45 18.352 1.135.271 3.449-18.353-1.134-.27zm12.957 1.474v-.654h-.529l-.048.595.577.058zm-.637 4.44l.567.135.001-.004-.568-.13zm-2.348 12.574l-.567-.135-.147.787h.714v-.653zm5.217 0v.652h.47l.097-.517-.567-.135zm1.478-7.838l.567.136.001-.003-.568-.133zm1.275-3.299l-.447-.415-.003.005-.003.004.453.407zm4.058-1.208l.183-.62-.011-.004-.012-.004-.16.628zm.957.556l-.363.51.7.63.224-.977-.561-.163zm1.188-5.193l.561.163.128-.56-.477-.21-.212.607zm-5.014.751l.368.505.003-.003-.371-.502zm-1.855 2.71v.654h.371l.155-.38-.526-.273zm-.058 0l-.57-.12-.128.774h.698v-.653zm.58-3.494l.569.12.128-.773h-.697v.654zm-5.418-.059c-.056.689-.226 2.134-.628 4.371l1.136.26c.408-2.27.587-3.764.647-4.512l-1.155-.118zm-.627 4.367l-2.348 12.572 1.134.269 2.348-12.573-1.134-.268zm-1.781 13.36h5.217v-1.307h-5.217v1.306zm5.784-.518l1.478-7.837-1.134-.272-1.478 7.838 1.134.271zm1.479-7.84c.139-.751.463-2.035 1.162-3.025l-.908-.813c-.867 1.231-1.239 2.756-1.389 3.572l1.135.266zm1.155-3.015c.237-.323.515-.607.891-.813.375-.207.88-.354 1.589-.354v-1.307c-.856 0-1.54.18-2.099.487-.559.308-.962.727-1.276 1.155l.895.832zm2.48-1.167c.311 0 .604.052.971.17l.319-1.256a4.086 4.086 0 00-1.29-.22v1.306zm.947.162c.311.117.561.25.777.445l.725-1.02a3.446 3.446 0 00-1.136-.664l-.366 1.24zm1.701.099l1.188-5.193-1.122-.326-1.189 5.192 1.123.327zm.839-5.964a5.66 5.66 0 00-2.241-.47v1.307c.392 0 1.096.06 1.817.38l.424-1.217zm-2.241-.47a4.775 4.775 0 00-3.356 1.328l.742 1.003a3.695 3.695 0 012.614-1.024v-1.306zm-3.354 1.325a8.755 8.755 0 00-2.012 2.941l1.052.548a7.452 7.452 0 011.697-2.48l-.737-1.009zm-1.486 2.562h-.058v1.306h.058v-1.306zm.512.773l.579-3.494-1.139-.24-.58 3.494 1.14.24zm.01-4.267h-4.841v1.305h4.841V48.56zm26.471.652l.567.135.148-.788h-.715v.654zm-5.217 0v-.653h-.47l-.097.518.567.136zm-1.478 7.838l.566.142v-.006l-.566-.136zm-1.217 3.266l-.443-.422-.002.004.445.418zm-4.058.947l.359-.514-.007-.005-.352.519zm1.159-12.05l.568.13.143-.784h-.711v.654zm-5.39 0v-.654h-.477l-.092.527.569.127zm-1.392 7.935l.568.133.001-.006-.569-.127zm.638 7.772l-.446.417.002.003.444-.42zm7.043.817l.275.574.007-.004-.282-.57zm2.435-2.286v-.654h-.282l-.174.25.456.404zm.058 0l.572.106.11-.76h-.682v.654zm-.406 2.776l-.572-.107-.111.76h.683v-.653zm4.839 0v.652h.522l.056-.583-.578-.07zm.639-4.442l-.567-.134-.002.003.569.131zm2.347-13.225h-5.217v1.305h5.217V48.56zm-5.784.517l-1.478 7.837 1.133.272 1.479-7.838-1.134-.271zm-1.477 7.831c-.177.9-.416 2.081-1.094 2.986l.886.843c.887-1.185 1.17-2.681 1.34-3.545l-1.132-.284zm-1.096 2.99c-.722.975-1.686 1.169-2.221 1.169v1.306c.739 0 2.093-.263 3.111-1.639l-.89-.837zm-2.221 1.169c-.358 0-.78-.093-1.033-.318l-.717 1.027c.557.494 1.295.597 1.75.597v-1.306zm-1.04-.323c-.292-.252-.381-.633-.381-.983h-1.159c0 .563.143 1.423.836 2.02l.704-1.037zm-.381-.983c0-.207-.006-.717.307-2.45l-1.136-.261c-.324 1.794-.33 2.394-.33 2.71h1.159zm.307-2.45l1.449-7.967-1.136-.262-1.449 7.968 1.136.261zm.881-8.752h-5.39v1.306h5.39V48.56zm-5.959.527l-1.391 7.935 1.137.254 1.391-7.936-1.137-.253zm-1.39 7.929c-.293 1.583-.418 2.483-.418 3.725h1.159c0-1.109.107-1.907.394-3.459l-1.135-.266zm-.418 3.725c0 1.11.046 3.061 1.177 4.597l.892-.834c-.84-1.142-.91-2.651-.91-3.763h-1.159zm1.179 4.6c.712.955 1.972 1.931 4.096 1.931v-1.306c-1.76 0-2.702-.787-3.208-1.465l-.888.84zm4.096 1.931c1.045 0 2.483-.239 3.666-.96l-.551-1.149c-.96.585-2.189.803-3.115.803v1.306zm3.673-.964c.271-.17 1.576-.973 2.608-2.453l-.911-.807c-.881 1.263-2.01 1.962-2.261 2.119l.564 1.141zm2.153-2.203h.058v-1.306h-.058v1.306zm-.515-.76l-.405 2.776 1.144.213.406-2.776-1.145-.212zm.167 3.535h4.839v-1.306h-4.839v1.306zm5.417-.583c.085-.896.227-2.181.628-4.38l-1.136-.262c-.41 2.243-.556 3.57-.645 4.503l1.153.139zm.628-4.376l2.347-12.573-1.133-.269-2.348 12.573 1.134.269zm17.572-.364l.569.124.206-1.209-1.003.485.228.6zm-5.651-7.02l.416.453.005-.005-.421-.449zm6.666-.49l-.26.584.609.343.204-.733-.553-.194zm1.129-4.082l.553.194.159-.57-.488-.227-.224.603zm-2.462-.85l.108-.64-.005-.002-.103.643zM235.52 64.333l.415-.455-.002-.002-.413.457zm9.652 1.633l.173.623.329-.117.065-.382-.567-.124zm.525-5.009a7.243 7.243 0 01-3.018.699v1.306c.84 0 2.169-.174 3.475-.804l-.457-1.2zm-3.018.699c-.687 0-1.731-.163-2.401-.92l-.82.924c1.01 1.139 2.458 1.302 3.221 1.302v-1.306zm-2.401-.92c-.594-.666-.73-1.626-.73-2.313h-1.158c0 .814.152 2.205 1.068 3.237l.82-.923zm-.73-2.313c0-1.203.425-2.596 1.142-3.432l-.833-.908c-.966 1.123-1.467 2.864-1.467 4.34h1.158zm1.147-3.438c.394-.47 1.29-1.2 2.883-1.2v-1.306c-1.944 0-3.136.904-3.725 1.61l.842.896zm2.883-1.2c.497 0 1.763.09 3.102.846l.52-1.168c-1.559-.878-3.02-.984-3.622-.984v1.307zm3.915.456l1.129-4.082-1.107-.389-1.128 4.082 1.106.39zm.8-4.88c-1.234-.575-1.94-.75-2.578-.887l-.218 1.283c.581.124 1.208.277 2.35.811l.446-1.206zm-2.583-.888c-.968-.198-1.704-.304-2.394-.304v1.306c.586 0 1.241.09 2.186.283l.208-1.285zm-2.394-.304c-1.98 0-4.969.438-7.442 3.086l.798.947c2.163-2.316 4.798-2.727 6.644-2.727v-1.306zm-7.442 3.086c-2.475 2.649-2.876 5.693-2.876 7.69h1.16c0-1.791.352-4.429 2.514-6.743l-.798-.947zm-2.876 7.69c0 1.795.442 3.933 2.108 5.846l.827-.915c-1.405-1.614-1.775-3.395-1.775-4.93h-1.16zm2.106 5.844c1.185 1.37 2.93 2.483 5.893 2.483v-1.306c-2.656 0-4.101-.976-5.062-2.088l-.831.911zm5.893 2.483c.86 0 2.612-.065 4.348-.683l-.349-1.246c-1.566.558-3.177.623-3.999.623v1.306zm4.742-1.182l.755-4.409-1.138-.247-.755 4.409 1.138.247zm4.377.138l-.566-.136-.148.788h.714v-.653zm5.217 0v.652h.471l.096-.517-.567-.135zm1.595-8.426v-.653h-.47l-.097.517.567.136zm.058 0l.536-.25-.148-.403h-.388v.653zm3.101 8.425l-.536.25.148.403h.388v-.653zm5.796 0v.653h.941l-.423-.947-.518.294zm-3.942-8.817l-.439-.426-.253.33.175.39.517-.294zm6.261-8.197l.439.426.825-1.078h-1.264v.652zm-5.941 0v-.653h-.282l-.172.249.454.404zm-5.015 7.152v.653h.28l.175-.248-.455-.405zm-.058 0l-.567-.135-.148.788h.715v-.653zm2.755-14.63l.567.136.148-.789h-.715v.653zm-5.217 0v-.653h-.47l-.099.518.569.136zm-4.61 25.145h5.217v-1.306h-5.217v1.306zm5.784-.517l1.595-8.425-1.134-.272-1.595 8.425 1.134.272zm1.028-7.908h.058v-1.306h-.058v1.306zm-.477-.403l3.1 8.425 1.071-.5-3.1-8.425-1.071.5zm3.636 8.828h5.796v-1.306h-5.796v1.306zm6.314-.947l-3.942-8.816-1.035.587 3.942 8.817 1.035-.587zm-4.021-8.097l6.261-8.197-.878-.851-6.261 8.196.878.852zm5.822-9.276h-5.941v1.306h5.941V48.56zm-6.395.249l-5.016 7.151.91.81 5.015-7.152-.909-.809zm-4.561 6.903h-.058v1.306h.058v-1.306zm.509.789l2.755-14.63-1.136-.271-2.753 14.63 1.134.27zm2.188-15.419h-5.217v1.306h5.217v-1.306zm-5.786.518l-4.607 24.492 1.133.271 4.61-24.492-1.136-.271zm19.226 4.838l-.567-.136-.147.789h.714v-.653zm5.217 0v.653h.47l.097-.518-.567-.135zm.811-4.31l.569.135.148-.789h-.717v.653zm-5.217 0v-.654h-.468l-.099.518.567.135zm-4.549 24.1l-.567-.137-.15.79h.717v-.653zm5.216 0v.652h.469l.098-.517-.567-.135zm3.217-17.015l.567.137.15-.79h-.717v.654zm-5.217 0v-.653h-.468l-.098.518.566.136zm.522-2.122h5.217v-1.306h-5.217v1.306zm5.784-.518l.813-4.31-1.136-.271-.811 4.31 1.134.271zm.244-5.099h-5.217v1.306h5.217v-1.306zm-5.784.518l-.811 4.31 1.134.271.811-4.31-1.134-.271zm-3.982 24.888h5.216v-1.306h-5.216v1.306zm5.783-.517l3.217-17.013-1.134-.272-3.216 17.013 1.133.272zm2.65-17.802h-5.217v1.305h5.217V48.56zm-5.783.517l-3.217 17.013 1.133.272 3.217-17.013-1.133-.272zm8.586 17.15l-.567-.135-.148.787h.715v-.653zm5.216 0v.652h.471l.096-.517-.567-.135zm1.479-7.838l.566.136v-.005l-.566-.13zm1.362-3.429l-.421-.45-.003.004-.002.004.426.442zm4.202 3.298l.569.131v-.005l-.569-.126zm-1.449 7.968l-.567-.13-.144.783h.711v-.653zm5.391 0v.653h.477l.092-.526-.569-.126zm1.392-7.935l.568.127.003-.009-.571-.118zm-.783-7.805l-.448.415.003.002.445-.417zm-6.869-.816l.26.584.006-.004-.266-.58zm-2.464 2.319v.652h.262l.172-.22-.434-.432zm-.056 0l-.574-.107-.112.76h.686v-.654zm.405-2.776l.571.106.112-.76h-.683v.654zm-4.841 0v-.654h-.531l-.047.595.578.058zm-.638 4.44l.567.135.002-.004-.569-.13zm-2.347 13.226h5.216v-1.306h-5.216v1.306zm5.783-.517l1.478-7.837-1.133-.272-1.479 7.838 1.134.271zm1.478-7.842c.278-1.534.652-2.42 1.223-3.118l-.853-.884c-.764.934-1.203 2.073-1.503 3.74l1.133.262zm1.217-3.11c.452-.539 1.035-1.038 2.101-1.038v-1.306c-1.485 0-2.352.742-2.943 1.445l.842.898zm2.101-1.038c.73 0 1.03.224 1.156.364l.82-.923c-.399-.448-1.026-.747-1.976-.747v1.306zm1.156.364c.168.191.293.58.293 1.04h1.158c0-.65-.165-1.436-.631-1.963l-.82.923zm.293 1.04c0 .41-.098.98-.338 2.357l1.138.25c.226-1.3.358-2.036.358-2.607h-1.158zm-.336 2.351l-1.449 7.968 1.136.263 1.449-7.969-1.136-.262zm-.882 8.752h5.391v-1.306h-5.391v1.306zm5.96-.526l1.391-7.935-1.138-.254-1.39 7.936 1.137.253zm1.394-7.944c.199-1.228.414-2.595.414-3.71h-1.158c0 .974-.193 2.22-.397 3.474l1.141.236zm.414-3.71c0-1.306-.21-3.12-1.321-4.63l-.892.834c.86 1.169 1.055 2.62 1.055 3.796h1.158zm-1.319-4.627c-.782-1.072-1.965-1.904-4.073-1.904v1.306c1.777 0 2.623.67 3.176 1.427l.897-.83zm-4.073-1.904c-1.458 0-2.593.386-3.512.922l.533 1.16c.764-.445 1.716-.776 2.979-.776v-1.306zm-3.505.918c-.717.404-1.499 1.016-2.639 2.47l.869.865c1.064-1.355 1.732-1.853 2.29-2.167l-.52-1.168zm-2.204 2.25h-.056v1.305h.056v-1.305zm.515.759l.405-2.776-1.145-.213-.405 2.776 1.145.213zm-.166-3.535h-4.841v1.305h4.841V48.56zm-5.419.593c-.055.689-.224 2.134-.627 4.371l1.136.26c.408-2.27.585-3.764.647-4.512l-1.156-.118zm-.627 4.367l-2.347 12.572 1.133.269 2.348-12.573-1.134-.268zm20.904 18.878l-.562-.158-.137.614.54.173.159-.629zm15.592-7.51l.565.147.002-.004-.567-.143zm2.319-11.593l-.56-.167-.002.011-.002.012.564.144zm.957-4.083l.562.167.19-.82h-.752v.654zm-4.839 0v-.653h-.457l-.107.5.564.154zm-.667 3.103v.653h.457l.105-.5-.562-.153zm-.059 0l-.546.216.134.437h.412v-.653zm-1.942-2.678l.305-.556-.005-.002-.3.558zm-8.696 1.502l-.401-.472v.002l.401.47zm-.956 13.128l-.417.453.005.005.002.004.41-.462zm7.363 1.143l.284.57.005-.003.002-.003-.291-.564zm2.029-2.155l.41-.462-.508-.572-.39.68.488.354zm.059.065l.559.166.085-.363-.235-.265-.409.462zm-.146.62l.558.175.002-.008-.56-.166zm-9.999 3.886l.291-.563-.668-.439-.185.844.562.158zm10.028-7.968l-.484-.362-.002.004.486.358zm-4.928.98l.423-.446-.004-.005-.419.451zm.204-5.78l-.484-.36-.002.005-.005.004.491.351zm4.926-.914l.423-.449-.007-.007-.006-.006-.41.462zm-11.404 18.883c2.37.757 3.588 1.102 6.073 1.102v-1.306c-2.328 0-3.43-.308-5.755-1.053l-.318 1.257zm6.073 1.102c2.716 0 5.326-.452 7.056-2.004l-.724-1.021c-1.4 1.257-3.66 1.719-6.332 1.719v1.306zm7.056-2.004c2.183-1.961 2.82-5.31 3.187-7.09l-1.129-.295c-.387 1.877-.966 4.734-2.782 6.364l.724 1.022zm3.189-7.094l2.319-11.593-1.131-.287-2.319 11.593 1.131.287zm2.314-11.57l.957-4.082-1.123-.333-.956 4.082 1.122.333zm.395-4.901h-4.839v1.305h4.839V48.56zm-5.403.499l-.668 3.102 1.127.308.667-3.103-1.126-.307zm-.103 2.603h-.059v1.306h.059v-1.306zm.488.437c-.459-1.48-1.347-2.436-2.184-3.018l-.607 1.113a4.376 4.376 0 011.698 2.337l1.093-.432zm-2.189-3.02c-1.081-.74-2.217-.911-3.286-.911v1.306c.961 0 1.857.155 2.686.722l.6-1.117zm-3.286-.911c-1.25 0-3.911.128-6.111 2.5l.802.943c1.86-2.005 4.124-2.137 5.309-2.137v-1.306zm-6.111 2.501c-1.78 1.935-2.844 4.955-2.844 8.112h1.16c0-2.852.965-5.515 2.489-7.172l-.805-.94zm-2.844 8.112c0 1.38.175 3.953 1.872 5.94l.836-.907c-1.376-1.606-1.548-3.735-1.548-5.033h-1.16zm1.879 5.948c.742.835 2.272 2.15 4.874 2.15v-1.306c-2.208 0-3.461-1.1-4.054-1.768l-.82.924zm4.874 2.15c1.127 0 2.155-.25 3.183-.9l-.569-1.138c-.828.525-1.655.732-2.614.732v1.306zm3.19-.905a6.942 6.942 0 002.224-2.365l-.974-.709a5.744 5.744 0 01-1.832 1.946l.582 1.128zm1.328-2.257l.059.065.819-.924-.058-.065-.82.924zm-.093-.563l-.144.62 1.12.333.145-.62-1.121-.333zm-.144.612c-.305 1.237-.618 2.687-1.514 3.612l.784.963c1.191-1.23 1.574-3.112 1.848-4.226l-1.118-.35zm-1.514 3.612c-.54.555-1.519 1.134-3.376 1.134v1.307c2.085 0 3.367-.661 4.16-1.478l-.784-.963zm-3.376 1.134c-1.937 0-3.286-.612-4.258-1.25l-.585 1.129c1.118.733 2.666 1.428 4.843 1.428v-1.307zm-5.111-.844l-1.015 4.572 1.124.317 1.015-4.572-1.124-.317zm10.908-11.271c0 1.053-.345 2.33-.802 3.1l.966.724c.589-.994.996-2.526.996-3.824h-1.16zm-.804 3.103c-.526.905-1.346 1.567-2.442 1.567v1.306c1.571 0 2.722-.971 3.412-2.156l-.97-.717zm-2.442 1.567c-.728 0-1.263-.299-1.577-.675l-.846.893c.557.668 1.411 1.088 2.423 1.088v-1.306zm-1.581-.68c-.459-.542-.564-1.255-.564-1.802h-1.159c0 .694.128 1.81.885 2.704l.838-.902zm-.564-1.802c0-1.311.472-2.53.837-3.176l-.979-.702c-.445.79-1.017 2.25-1.017 3.878h1.159zm.833-3.168c.75-1.281 1.709-1.437 2.356-1.437v-1.306c-.86 0-2.278.237-3.324 2.025l.968.718zm2.356-1.437c.663 0 1.257.153 1.676.626l.82-.924c-.74-.834-1.709-1.008-2.496-1.008v1.306zm1.665.612c.36.43.537 1.033.537 1.805h1.16c0-.991-.23-1.957-.853-2.702l-.844.897zm23.956-11.225v-.653h-.47l-.096.517.566.136zm-4.318 22.86l-.567-.137-.15.79h.717v-.653zm5.391 0v.652h.468l.099-.517-.567-.135zm4.319-22.86l.567.136.148-.789h-.715v.653zm-5.958-.136l-4.319 22.86 1.133.271 4.319-22.859-1.133-.272zm-3.752 23.648h5.391v-1.306h-5.391v1.306zm5.958-.517l4.319-22.859-1.133-.272-4.32 22.86 1.134.271zm3.752-23.648h-5.392v1.306h5.392v-1.306zm1.866 23.513l-.567-.135-.148.787h.715v-.653zm5.217 0v.652h.47l.097-.517-.567-.135zm1.478-7.838l.567.136.002-.005-.569-.13zm1.362-3.429l-.421-.45-.002.004-.002.004.425.442zm4.202 3.298l.57.131v-.005l-.57-.126zm-1.449 7.968l-.566-.13-.144.783h.71v-.653zm5.392 0v.653h.477l.092-.526-.569-.126zm1.391-7.935l.569.127v-.009l-.569-.118zm-.782-7.805l-.448.415v.002l.448-.417zm-6.87-.816l.26.584.007-.004-.267-.58zm-2.464 2.319v.652h.262l.173-.22-.435-.432zm-.058 0l-.571-.107-.11.76h.681v-.654zm.408-2.776l.571.106.109-.76h-.68v.654zm-4.841 0v-.654h-.531l-.047.595.578.058zm-.638 4.44l.566.135.002-.004-.568-.13zm-2.348 13.226h5.217v-1.306h-5.217v1.306zm5.784-.517l1.478-7.837-1.134-.272-1.478 7.838 1.134.271zm1.48-7.842c.276-1.534.65-2.42 1.221-3.118l-.853-.884c-.764.934-1.203 2.073-1.506 3.74l1.138.262zm1.214-3.11c.453-.539 1.035-1.038 2.102-1.038v-1.306c-1.486 0-2.352.742-2.944 1.445l.842.898zm2.102-1.038c.73 0 1.03.224 1.155.364l.818-.923c-.396-.448-1.024-.747-1.973-.747v1.306zm1.155.364c.168.191.294.58.294 1.04h1.158c0-.65-.164-1.436-.634-1.963l-.818.923zm.294 1.04c0 .41-.099.98-.338 2.357l1.138.25c.226-1.3.358-2.036.358-2.607h-1.158zm-.336 2.351l-1.449 7.968 1.135.263 1.45-7.969-1.136-.262zm-.883 8.752h5.392v-1.306h-5.392v1.306zm5.961-.526l1.391-7.935-1.138-.254-1.391 7.936 1.138.253zm1.391-7.944c.202-1.228.416-2.595.416-3.71h-1.16c0 .974-.19 2.22-.396 3.474l1.14.236zm.416-3.71c0-1.306-.21-3.12-1.321-4.63l-.894.834c.86 1.169 1.055 2.62 1.055 3.796h1.16zm-1.319-4.627c-.781-1.072-1.964-1.904-4.072-1.904v1.306c1.776 0 2.623.67 3.176 1.427l.896-.83zm-4.072-1.904c-1.458 0-2.594.386-3.513.922l.534 1.16c.761-.445 1.715-.776 2.979-.776v-1.306zm-3.506.918c-.716.404-1.498 1.016-2.638 2.47l.869.865c1.064-1.355 1.731-1.853 2.289-2.167l-.52-1.168zm-2.204 2.25h-.058v1.305h.058v-1.305zm.515.759l.406-2.776-1.145-.213-.405 2.776 1.144.213zm-.165-3.535h-4.841v1.305h4.841V48.56zm-5.419.593c-.056.689-.226 2.134-.63 4.371l1.138.26c.408-2.27.587-3.764.646-4.512l-1.154-.118zm-.627 4.367l-2.348 12.572 1.134.269 2.347-12.573-1.133-.268zm33.25 8.036l.569.124.206-1.209-1.003.485.228.6zm-5.651-7.02l.417.453.004-.005-.421-.449zm6.666-.49l-.26.584.61.343.203-.733-.553-.194zm1.129-4.082l.553.194.159-.57-.49-.227-.222.603zm-2.462-.85l.108-.64-.005-.002-.103.643zM370.23 64.333l.414-.455v-.002l-.414.457zm9.649 1.633l.175.623.33-.117.067-.382-.572-.124zm.527-5.009a7.243 7.243 0 01-3.017.699v1.306a8.3 8.3 0 003.474-.804l-.457-1.2zm-3.017.699c-.688 0-1.732-.163-2.402-.92l-.819.924c1.01 1.139 2.457 1.302 3.221 1.302v-1.306zm-2.402-.92c-.591-.666-.73-1.626-.73-2.313h-1.158c0 .814.152 2.205 1.069 3.237l.819-.923zm-.73-2.313c0-1.203.426-2.596 1.143-3.432l-.834-.908c-.965 1.123-1.467 2.864-1.467 4.34h1.158zm1.147-3.438c.394-.47 1.29-1.2 2.883-1.2v-1.306c-1.942 0-3.134.904-3.725 1.61l.842.896zm2.883-1.2c.499 0 1.763.09 3.102.846l.518-1.168c-1.557-.878-3.018-.984-3.62-.984v1.307zm3.915.456l1.129-4.082-1.106-.389-1.129 4.082 1.106.39zm.798-4.88c-1.232-.575-1.938-.75-2.576-.887l-.218 1.283c.579.124 1.206.277 2.35.811l.444-1.206zm-2.581-.888c-.967-.198-1.704-.304-2.394-.304v1.306c.587 0 1.241.09 2.186.283l.208-1.285zm-2.394-.304c-1.978 0-4.968.438-7.441 3.086l.797.947c2.164-2.316 4.798-2.727 6.644-2.727v-1.306zm-7.441 3.086c-2.476 2.649-2.877 5.693-2.877 7.69h1.161c0-1.791.351-4.429 2.513-6.743l-.797-.947zm-2.877 7.69c0 1.795.441 3.933 2.108 5.846l.829-.915c-1.407-1.614-1.776-3.395-1.776-4.93h-1.161zm2.108 5.846c1.183 1.37 2.928 2.481 5.891 2.481v-1.306c-2.656 0-4.101-.976-5.062-2.088l-.829.913zm5.891 2.481c.861 0 2.612-.065 4.348-.683l-.347-1.246c-1.568.558-3.178.623-4.001.623v1.306zm4.745-1.182l.752-4.409-1.137-.247-.755 4.409 1.14.247zm4.607.138l-.566-.135-.148.787h.714v-.653zm4.897 0v.652h.47l.099-.519-.569-.133zm.985-5.29l.57.133.145-.787h-.715v.653zm-4.896 0v-.654h-.473l-.096.52.569.133zm-.986 5.942h4.897v-1.306h-4.897v1.306zm5.466-.519l.986-5.29-1.136-.268-.986 5.29 1.136.268zm.416-6.077h-4.896v1.306h4.896v-1.306zm-5.465.52l-.983 5.29 1.133.267.986-5.29-1.136-.268z" fill="#fff"/></svg>