<svg width="139" height="40" viewBox="0 0 139 40" fill="none" xmlns="http://www.w3.org/2000/svg"><path fill-rule="evenodd" clip-rule="evenodd" d="M50.578 26.85c-.02.084-.074.383-.123.665-.076.441-.11.518-.254.554-.09.023-.236.138-.322.255l-.157.213h-4.025v-5.156c0-4.705 0-5.258-.24-5.4a.587.587 0 00-.11-.043l-.005-.002c-.141-.045-.143-.101-.143-3.913 0-3.705-.006-3.878-.139-4.096-.127-.21-.469-.377-.771-.379-.076 0-.09-.698-.08-3.701.009-2.85-.01-3.74-.078-3.869-.115-.216-.114-.678.002-.819.05-.06.078-.12.063-.133-.08-.067-.508.128-.697.317-.418.42-.433.572-.433 4.577 0 2.855-.019 3.628-.089 3.628-.048 0-.21.035-.359.076-.339.095-.546.412-.547.836v.305l-.355-.234V6.386c0-3.473 0-3.994-.246-4.174a.73.73 0 00-.155-.078l-.018-.007a1.004 1.004 0 00-.52-.04c-.773.126-5.54 1.004-7.2 1.327-7.473 1.453-10.933 3.342-11.947 6.524l-.159.498-.558-.02a9.561 9.561 0 00-2.264.238c-.565.144-1.49.605-1.866.93-.248.213-.303.304-.303.507 0 .333.151.605.494.894l.285.24-.378 1.82a93.939 93.939 0 00-.548 2.84c-.148.892-.188 1.024-.313 1.053-.08.018-1.423.114-2.987.214-6.95.444-7.998.57-8.932 1.08-.382.21-.822.668-.886.923-.034.136-.1.158-.559.187-.797.052-1.3.399-1.52 1.049-.1.3-.115 5.905-.015 6.169.065.17.056.175-.324.207-.303.025-.434.076-.582.224-.185.186-.191.218-.21 1.136-.023 1.069.023 1.229.411 1.43.209.108.393.125 1.172.107 1.08-.025 1.357-.127 1.706-.623.195-.278.213-.354.214-.896 0-.574.01-.607.285-1.008.43-.631 1.228-1.404 1.907-1.848.713-.467 1.182-.685 2.027-.944.56-.172.726-.189 1.858-.194 1.483-.006 2.024.109 3.167.674 2.538 1.256 4.104 3.864 4.002 6.666-.014.397.003.686.042.686.037 0 1.124-.081 2.417-.18 2.31-.176 2.353-.182 2.507-.357.183-.208.36-.227.487-.052.082.113.281.127 2.065.146 1.895.02 1.982.015 2.171-.125.268-.2.575-.192.666.014.127.291.768.258.843-.044.023-.094.105-.187.181-.207.133-.035.14.016.161 1.247.02 1.173.034 1.291.16 1.384.104.076.386.101 1.13.101.853 0 1.004.017 1.08.122.066.09.224.13.601.152.438.024.542.007.716-.123.199-.147.267-.15 2.801-.15 1.429 0 2.598.026 2.598.06 0 .245 1.08.31 1.37.082.162-.128.288-.143 1.24-.143.801 0 1.092-.024 1.197-.1.123-.091.14-.21.161-1.107l.023-1.006 1.114.006c.613.003 3.927.075 7.365.16l6.25.155.123.5h.621l.397-3.69L59 28.068h.04l-.467 1.327-.266.737s-.703 1.351-.807 2.296c0 0 .104 2.562.5 3.828s2.188 3.016 4.304 3.545c1.193.299 2.319.229 3.151.003 1.096-.297 2.188-1.212 3.006-1.99.94-.894 1.32-1.981 1.656-3.507.033-.152.113-.214.4-.31.33-.11.378-.11.597-.005.311.148.337.146.887-.07.644-.253.717-.355.717-1.002 0-.484.012-.528.145-.528.08 0 .225-.08.323-.178.137-.138.251-.179.496-.179H74l-.038-3.034-.743-.02c-.762-.021-.928-.077-.928-.31 0-.124-.068-.134-.934-.134h-.935l-.342-.321c-.253-.238-.399-.321-.563-.321-.313 0-.492.117-.61.398-.095.23-.12.244-.446.244-.294 0-.397-.04-.692-.277-.483-.386-1.228-.784-1.906-1.02l-.82-.546H58l-.759 1.664c-.063-.252-.358-.463-.645-.463-.19 0-.318.07-.585.32l-.342.322h-3.073l-.11-.213c-.06-.117-.186-.232-.279-.256-.148-.037-.178-.105-.247-.575a9.443 9.443 0 01-.079-.672l-1.303.03zm-6.73-20.515c.046 0 .071-.654.071-1.82s-.025-1.82-.07-1.82c-.046 0-.072.654-.072 1.82s.026 1.82.071 1.82zm-2.843 4.141V6.621c0-2.12-.008-3.852-.018-3.848-.01.004-.45.084-.977.18-7.187 1.295-9.337 1.753-11.39 2.426-3.255 1.066-5.156 2.352-5.996 4.055-.176.357-.327.746-.335.863l-.015.214 1.898.146c1.044.08 1.915.162 1.936.183.08.081-2.956.3-4.865.35-1.624.041-2.103.077-2.417.177-.406.13-1.21.518-1.456.703-.139.104-.139.11-.007.256.074.082.306.23.515.33l.38.18v2.652c0 2.545-.006 2.665-.149 2.96-.196.407-.512.658-1.183.942-.698.294-.918.32-5.03.586-5.35.347-6.486.471-7.225.79-.324.14-.764.522-.688.598.021.022 1.808.135 3.971.253 2.163.117 3.943.223 3.955.235.012.012-2.098.063-4.688.114-3.541.07-4.766.116-4.938.187a.941.941 0 00-.375.33c-.14.228-.144.326-.125 3.068l.018 2.832.173.184c.094.101.196.184.226.184s.065-.843.077-1.874l.022-1.874.199-.406c.252-.516.843-1.065 1.383-1.284l.408-.166h4.123c4.04 0 4.136.004 4.749.16 2.562.656 4.402 2.735 4.709 5.32l.049.41H28.57l.35-.35v-8.402c0-6.41.02-8.47.086-8.694.115-.387.639-.913 1.023-1.028.22-.065 1.633-.087 5.634-.087h5.34zm3.483 17.352V10.333h-1.706l.036 17.455 1.67.04zm-2.452-16.065l-.536-.537-5.561-.017-.775-.003c-4.49-.014-5.04-.016-5.268.256a.977.977 0 00-.086.13l-.036.061c-.14.229-.143.348-.143 8.363 0 7.738.006 8.143.13 8.374.072.134.24.302.372.374.229.123.55.13 5.718.13s5.49-.007 5.718-.13a1.08 1.08 0 00.373-.375c.125-.234.13-.602.112-8.435l-.018-8.19zM17.252 28.858a5.483 5.483 0 00-4.142-5.034c-.528-.133-.806-.141-4.585-.14H4.503l-.367.172c-.457.213-.87.622-1.096 1.081-.167.34-.173.414-.195 2.173l-.023 1.821.437.324V27.36c0-2.043.016-2.155.397-2.656.1-.13.346-.325.549-.432l.369-.196h4.211c3.208 0 3.935 0 4.58.23.188.068.37.155.605.268l.058.027c1.73.828 2.744 2.459 2.869 4.61l.046.79 11.32.037.069-.357-11.034-.036-.045-.786zM5.848 25.095c.054-.154.04-.225-.063-.34-.105-.116-.219-.144-.58-.144-.398 0-.462.02-.564.175-.14.216-.077.453.137.507.087.022.348.03.58.018.387-.02.428-.038.49-.216zm50.671 3.902c.245-.27.343-.433.326-.547-.039-.278-.312-.25-.603.064-1.142 1.226-1.732 2.638-1.85 4.423-.04.626-.036.656.118.74.261.14.339-.025.424-.896.157-1.61.626-2.731 1.585-3.784zm15.18 3.858c-.102-1.678-.707-3.119-1.804-4.3-.155-.167-.327-.3-.382-.298-.362.02-.371.305-.022.64.938.904 1.573 2.416 1.7 4.05.042.553.073.674.19.737.101.054.168.05.25-.019.094-.078.105-.208.068-.81zm-4.947-2.533a4.044 4.044 0 00-1.708-1.03c-.569-.167-1.444-.201-1.988-.078-1.035.236-2.069.95-2.616 1.808-1.204 1.886-.695 4.402 1.14 5.635.685.46 1.267.659 2.075.708 1.14.07 2.19-.313 3.036-1.109.872-.82 1.3-1.83 1.29-3.043-.01-1.163-.392-2.06-1.229-2.891zm-64.02.553c.438-.403.388-1.128-.1-1.458-.245-.166-1.91-.235-2.056-.086-.093.095-.13 1.443-.046 1.663.037.095.193.113.997.113h.953l.252-.232zm28.89 4.944v-5.997h-.568v5.997h.569zm6.754 0v-5.997h-.237c-.13 0-.258.021-.285.048-.026.026-.047 1.375-.047 2.998v2.95h.569zm-7.82-4.57v-1.355h-1.777v5.71h1.777v-3.997h-.703c-.704 0-.816-.04-.738-.268.023-.063.236-.09.736-.09h.705zm6.754-.009v-1.346h-5.12v1.354l2.115.019c2.061.018 2.115.022 2.115.161 0 .14-.054.144-2.115.162l-2.115.019v3.995h5.119v-3.988l-.196-.022c-.14-.017-.196-.063-.196-.166 0-.102.055-.149.196-.165l.196-.023zm3.554.01v-1.357h-1.92v1.357h1.92zm0 4.355v-3.998h-1.92v3.998h1.92zm29.63-2.906c.307-.075.33-.226.074-.503a.512.512 0 00-.313-.16c-.154 0-.161.019-.12.338.025.187.054.351.066.365.012.014.144-.003.292-.04zm-28.271-.021l-.044-.536-.818-.043v.579h.862zm10.796-.143c-.206 0-.497-.21-.497-.357 0-.047-1.47-.072-4.265-.072H43.99v.643h.516c.6 0 5.447.118 7.393.179l1.333.042v-.218c0-.194-.023-.217-.214-.217zm3.024.267c.008-.01.037-.17.064-.356l.049-.34h-.284c-.247 0-.298.03-.395.226a2.505 2.505 0 00-.112.243c0 .026.662.248.678.227z" fill="#0B225C"/><path fill-rule="evenodd" clip-rule="evenodd" d="M19.43 12.334c-.156.08-.348.232-.426.339-.14.191-.143.324-.163 7.655-.015 5.186.002 7.54.055 7.725.048.166.174.34.336.464l.259.199h3.927c3.853 0 3.932-.003 4.129-.147.11-.081.273-.29.362-.464l.16-.317-.018-7.389c-.019-7.269-.021-7.393-.163-7.639a1.196 1.196 0 00-.46-.41c-.315-.16-.319-.16-4.014-.16-3.572 0-3.709.004-3.984.144zm8.07.846l-.417-.42h-3.657c-3.591 0-3.66.003-3.844.148l-.187.148V27.89l.156.146c.152.142.23.145 3.866.145 3.547 0 3.718-.006 3.878-.136l.168-.137.038-14.727z" fill="#0B225C"/><path d="M20.2 13.403a.527.527 0 00-.232.205c-.048.091-.075.873-.075 2.174 0 1.893.009 2.043.135 2.2l.136.168 6.413.04.353-.355v-4.153l-.349-.35-3.113.004c-1.712.002-3.183.033-3.269.067zm23.755-1.416c-.02.052-.028 3.324-.018 7.27.016 6.321.03 7.174.125 7.174.094 0 .106-.852.106-7.24 0-5.727-.018-7.246-.089-7.27-.048-.016-.105.014-.124.066zm-27.812 9.775c-.756.425-.704.493.373.493h.889v-.173c0-.269-.072-.395-.29-.508-.294-.152-.402-.132-.972.188zm8.452.128c-.053.033-.084.121-.07.195.023.123.113.136 1.073.154l1.048.02v-.173c0-.095-.05-.192-.113-.216-.172-.066-1.83-.05-1.938.02zm-8.968 1.15h1.778v-.428h-1.778v.428zm0 .424c0 .112.946.585 1.19.595.276.01.588-.251.588-.496 0-.165-.006-.166-.889-.166-.502 0-.889.03-.889.067z" fill="#0B225C"/><path fill-rule="evenodd" clip-rule="evenodd" d="M63.43 31.706c-1.101.357-1.513 1.694-.792 2.572.965 1.176 2.854.499 2.852-1.023 0-1.064-1.07-1.868-2.06-1.549zm1.496 1.555c0-.374-.17-.687-.483-.894-.434-.285-.988-.189-1.343.235-.325.388-.346.872-.056 1.281.574.81 1.882.377 1.882-.622zM44.371 1.165a.84.84 0 00-.12.387c0 .266.204.572.38.572.42 0 .59-.716.239-.995-.247-.194-.353-.186-.499.036zM5.784 24.755c.103.115.117.186.063.34-.062.178-.103.196-.49.216-.232.012-.493.004-.58-.018-.214-.054-.278-.29-.137-.507.102-.155.166-.175.564-.175.361 0 .475.028.58.145zm2.913 2.003c-1.106.155-2.474.782-3.353 1.536-1.091.936-1.924 2.446-2.16 3.914-.118.734-.051 2.149.13 2.754.853 2.84 3.364 4.2 6.186 4.344 1.848.095 3.5-.497 4.618-1.302 1.779-1.697 2.452-4.147 1.793-6.527-.872-3.149-3.968-5.174-7.214-4.719zm2.187 2.814c.264.09.635.265.825.387.8.516 1.514 1.532 1.716 2.444.14.63.06 1.706-.166 2.26-.704 1.721-2.434 2.728-4.219 2.454-1.848-.282-3.296-1.967-3.292-3.83.002-1.088.373-1.985 1.144-2.768a3.799 3.799 0 013.991-.947zm-1.796 2.172c-1.16.408-1.443 1.925-.508 2.729a1.583 1.583 0 002.639-1.209c.004-1.144-1.054-1.9-2.131-1.52zm.976.574c.78.356.79 1.486.017 1.877-.929.468-1.888-.606-1.338-1.5.154-.25.604-.514.878-.514.078 0 .277.062.442.137zm117.566.063c-1.033.327-1.42 1.553-.743 2.358.906 1.078 2.678.457 2.677-.938-.001-.976-1.005-1.713-1.934-1.42zm1.404 1.426a.943.943 0 00-.453-.82c-.408-.262-.927-.173-1.26.215-.305.356-.325.8-.052 1.175.538.741 1.765.345 1.765-.57zm-15.448-1.426c-1.033.327-1.419 1.553-.743 2.358.906 1.078 2.678.457 2.677-.938-.001-.976-1.005-1.713-1.934-1.42zm1.404 1.426a.943.943 0 00-.453-.82c-.407-.262-.927-.173-1.26.215-.305.356-.325.8-.052 1.175.538.741 1.765.345 1.765-.57z" fill="#0B225C"/><path fill-rule="evenodd" clip-rule="evenodd" d="M129.034 33.807a.943.943 0 00-.453-.82c-.408-.262-.927-.173-1.26.215-.305.356-.325.8-.052 1.175.538.741 1.765.345 1.765-.57zm-2.147.932c-.677-.805-.29-2.031.743-2.358.929-.293 1.933.444 1.934 1.42.001 1.395-1.771 2.016-2.677.938z" fill="#0B225C"/><path fill-rule="evenodd" clip-rule="evenodd" d="M107.262 29.15l-.327.817c-.453 1.13-.833 3.207-.889 4.857L106 36.209l1.269.066c1.087.057 1.289.104 1.417.33 1.624 2.869 5.188 4.001 8.028 2.55.918-.468 2.051-1.525 2.476-2.308l.311-.572h2.975l.437.714c.48.785 1.573 1.814 2.319 2.184.264.13.958.341 1.542.468.908.197 1.203.207 2.025.075 1.831-.294 3.185-1.14 4.17-2.603l.563-.838h1.833v1.105c0 1.185.193 1.613.542 1.202.132-.155.153-.747.093-2.541-.086-2.584-.339-4.434-.771-5.637-.156-.436-.477-1.366-.477-1.366h3.164v3.219H139v-4.271l-1.084-1.12h-28.818l-2.163 1.12.327 1.164zm27.056.693c-.357-.738-1.058-1.495-1.721-1.857-.368-.202-1.391-.223-11.408-.244-6.293-.013-11.183.029-11.422.097-.603.174-1.557 1.046-1.986 1.815-.489.879-.832 2.25-1.039 4.157-.129 1.19-.131 1.596-.011 1.714.248.242.367-.067.543-1.41.475-3.622 1.535-5.752 3.002-6.032.321-.061 5.263-.11 10.98-.11h1.809c8.023-.003 9.225-.003 9.766.582.096.102.17.224.258.366l.115.183c.723 1.114 1.323 3.101 1.548 5.126.131 1.187.193 1.385.431 1.385.191 0 .206-.16.123-1.352-.111-1.61-.525-3.463-.988-4.42zm-17.044 4.196c0-1.392-.893-2.688-2.138-3.102-2.025-.675-4.088.56-4.417 2.643-.185 1.174.549 2.534 1.704 3.155 2.166 1.165 4.851-.328 4.851-2.696zm13.666-1.543c-.388-.729-1.26-1.438-1.988-1.617-1.624-.4-3.133.229-3.882 1.617-.455.842-.423 2.194.071 3.016a3.312 3.312 0 005.694.053c.352-.56.404-.765.4-1.583-.003-.699-.079-1.08-.295-1.486z" fill="#0B225C"/><path fill-rule="evenodd" clip-rule="evenodd" d="M74.24 30.716v-3.85H109v1.13H98.487v.604l5.118.037.072 5.906-25.527-.085V28.57h2.08l1.99.03v-.561h-2.873l-3.962-.044v5.386h-.238v.703h.405v.468H74v-.468h.463v-.703h-.238l.015-2.665zm24.512 2.621v-3.406l3.503.034.039 3.416-3.542-.044zm-15.033-1.57l.039 1.52h13.771v-3.322l-6.726.05h-7.084s-.02.916 0 1.752zm13.639-3.197s-7.652-.062-13.6-.032v-.5s6.856-.033 13.6 0v.532zm-14.95 4.717v-3.273h-2.903v3.348l2.903-.075zM47.022 0s-.047 5.853 0 13.302l.085 13.542H139V.024L47.022 0zM48 26h89.916V1.026H48V26z" fill="#0B225C"/></svg>