<svg width="174" height="40" viewBox="0 0 174 40" fill="none" xmlns="http://www.w3.org/2000/svg"><path fill-rule="evenodd" clip-rule="evenodd" d="M77.401 27.336l-6.177-.344c.29.032.656.124 1.275.316.59.182 1.072.355 1.072.385 0 .03-.092.074-.204.1-.144.031-.58-.072-1.49-.352-.707-.218-1.3-.41-1.319-.429l-4.039-.033.258.636c.142.35.258.652.258.673 0 .02-.274.037-.61.037-.475 0-.638.026-.741.12-.107.098-.156.105-.252.037-1.326-.95-2.971-1.408-4.41-1.23-1.182.146-2.172.534-3.087 1.207-.455.336-.519.362-.894.362-.373 0-.408-.014-.449-.179-.062-.248-.354-.459-.638-.459-.187 0-.314.07-.578.319l-.338.319h-3.039l-.108-.212c-.06-.116-.184-.23-.276-.253-.147-.038-.176-.105-.244-.571a10.13 10.13 0 01-.078-.667l-1.289.03a19.95 19.95 0 00-.121.658c-.075.438-.11.514-.251.55-.09.023-.234.137-.32.253l-.154.212h-3.98v-5.116c0-4.668 0-5.217-.237-5.358a.518.518 0 00-.108-.043l-.005-.002c-.14-.044-.142-.1-.142-3.883 0-3.676-.006-3.847-.137-4.064-.126-.208-.464-.374-.763-.375-.074 0-.089-.694-.08-3.673.01-2.828-.007-3.711-.075-3.839-.114-.215-.113-.673.002-.812.05-.06.077-.12.062-.133-.08-.066-.503.127-.69.315-.413.417-.427.567-.427 4.542 0 2.832-.019 3.6-.088 3.6a2.13 2.13 0 00-.355.075c-.335.094-.54.408-.54.829v.303l-.177-.117-.175-.116V6.841c0-3.445 0-3.962-.244-4.14a.705.705 0 00-.153-.078l-.018-.007a.989.989 0 00-.513-.039c-.765.124-5.477.995-7.12 1.316-7.387 1.441-10.808 3.316-11.81 6.474l-.157.493-.552-.02c-.643-.022-1.637.082-2.239.237-.558.143-1.473.6-1.845.921-.245.212-.298.303-.298.505 0 .33.148.6.488.886l.281.238-.374 1.806a94.665 94.665 0 00-.541 2.819c-.147.884-.186 1.016-.31 1.044-.078.018-1.407.113-2.953.212-6.87.44-7.907.567-8.83 1.073-.378.207-.813.662-.877.915-.033.135-.098.157-.552.186-.788.05-1.285.395-1.502 1.04-.1.297-.114 5.86-.016 6.121.064.169.056.174-.32.206-.3.025-.43.075-.575.222-.184.185-.19.217-.208 1.127-.022 1.06.023 1.22.406 1.419.207.107.39.124 1.16.106 1.066-.025 1.34-.125 1.686-.618.193-.276.21-.35.211-.89.001-.569.01-.6.281-1 .427-.625 1.215-1.392 1.886-1.833.705-.463 1.169-.68 2.004-.937.553-.17.718-.187 1.837-.192 1.466-.006 2.001.108 3.131.669a7.107 7.107 0 013.957 6.614c-.014.394.003.68.041.68.037 0 1.112-.08 2.39-.178 2.284-.175 2.326-.18 2.478-.354.182-.206.357-.225.482-.052.081.112.278.126 2.042.145 1.874.02 1.96.015 2.146-.124.265-.197.569-.19.658.015.126.288.76.255.834-.044.023-.094.104-.186.18-.206.13-.035.137.015.158 1.237.02 1.164.034 1.282.159 1.374.102.075.381.1 1.116.1.844 0 .993.017 1.068.121.065.09.222.129.595.15.433.025.535.007.707-.12.197-.147.264-.151 2.77-.151 1.412 0 2.568.027 2.568.06 0 .244 1.068.308 1.354.082.16-.128.285-.142 1.226-.142.793 0 1.08-.024 1.184-.1.122-.09.139-.208.159-1.098l.023-.998 1.102.006c.605.003 3.882.075 7.28.16l6.18.153.121.496c.52 2.125 2.046 3.825 4.036 4.491.865.29 1.547.387 2.39.338a6.254 6.254 0 004.917-2.908c.367-.58.588-1.108.775-1.85l.16-.636.428-.127c.41-.122.449-.122.967 0l.54.125.166.638c.598 2.283 2.24 3.96 4.486 4.58.818.225 2.293.227 3.115.002a6.265 6.265 0 002.779-1.568c.928-.887 1.499-1.973 1.83-3.487.033-.151.112-.212.396-.307.326-.11.373-.11.59-.006.308.147.333.145.877-.07.636-.25.709-.352.709-.994 0-.48.011-.523.143-.523.08 0 .223-.08.32-.177.135-.136.248-.178.49-.178h.314l-.019-1.505-.019-1.505-.733-.02c-.754-.021-.918-.076-.918-.307 0-.124-.067-.133-.924-.133h-.924l-.338-.319c-.25-.236-.395-.319-.557-.319-.31 0-.487.116-.602.395-.095.23-.12.243-.442.243-.29 0-.392-.041-.684-.275-.478-.383-1.214-.779-1.884-1.012l-.568-.198zM43.75 2.046a.84.84 0 01.119-.384c.144-.221.25-.229.493-.036.348.276.179.986-.235.986-.175 0-.377-.302-.377-.566zm-.398 4.746c.045 0 .07-.65.07-1.807s-.025-1.806-.07-1.806c-.045 0-.07.65-.07 1.806 0 1.157.025 1.807.07 1.807zM40.54 10.9V7.075c0-2.104-.008-3.822-.018-3.818-.01.003-.444.084-.966.178-7.105 1.286-9.23 1.74-11.26 2.408-3.219 1.058-5.098 2.333-5.928 4.024-.174.354-.323.739-.332.856l-.015.212 1.877.144c1.032.08 1.893.162 1.914.182.08.08-2.922.297-4.81.347-1.606.041-2.08.076-2.39.176-.4.128-1.197.514-1.439.697-.137.104-.137.109-.007.254.073.082.302.229.509.328l.375.179v2.631c0 2.525-.005 2.645-.146 2.938-.194.403-.506.652-1.17.933-.69.292-.907.318-4.973.582-5.29.345-6.412.468-7.143.785-.32.139-.755.517-.68.593.02.02 1.788.133 3.926.25 2.138.116 3.898.221 3.91.233.011.012-2.074.063-4.635.114-3.5.07-4.712.115-4.882.185a.932.932 0 00-.37.327c-.139.227-.143.325-.125 3.045l.019 2.81.17.183c.094.1.195.182.224.182.03 0 .064-.837.076-1.86l.022-1.858.196-.404c.25-.512.835-1.057 1.368-1.274l.404-.164h4.076c3.993 0 4.089.003 4.695.159 2.532.65 4.351 2.712 4.655 5.277l.048.408h10.532l.173-.174.172-.174v-8.336c0-6.361.02-8.404.086-8.627.113-.383.631-.906 1.012-1.02.217-.064 1.614-.086 5.57-.086h5.28zm3.444 17.217V10.758h-1.688l.018 8.66.018 8.659.826.02.826.02zm-2.425-15.94l-.265-.266-.264-.267-5.499-.017-.766-.003c-4.44-.014-4.983-.016-5.207.254a.936.936 0 00-.086.13l-.036.06c-.139.227-.14.345-.14 8.298 0 7.678.005 8.079.128 8.309.07.132.236.3.367.37.226.123.545.13 5.654.13 5.108 0 5.427-.007 5.653-.13.132-.07.297-.238.368-.371.124-.232.129-.597.111-8.37l-.018-8.127zm1.88 7.435c-.01-3.915-.003-7.16.017-7.213.02-.052.075-.08.123-.065.07.024.088 1.531.088 7.213 0 6.339-.012 7.184-.105 7.184s-.108-.846-.124-7.119zm-24.65-6.532a1.4 1.4 0 01.421-.337c.272-.138.407-.143 3.938-.143 3.654 0 3.658 0 3.97.16.184.094.37.26.454.407.14.244.142.367.16 7.579l.02 7.331-.16.315c-.087.173-.248.38-.358.46-.194.143-.272.146-4.081.146H19.27l-.256-.197a.948.948 0 01-.332-.46c-.053-.184-.07-2.52-.055-7.666.02-7.273.023-7.405.162-7.595zm8.4.503l-.207-.208-.206-.208h-3.615c-3.552 0-3.619.002-3.8.146l-.186.147v14.718l.154.144c.15.142.227.145 3.822.145 3.508 0 3.676-.006 3.835-.136l.166-.135.018-7.307.019-7.306zm-7.447.425a.522.522 0 01.228-.203c.085-.035 1.539-.065 3.232-.067l3.078-.005.172.174.173.174v4.121l-.175.176-.174.176-3.17-.02-3.17-.02-.135-.167c-.125-.156-.134-.304-.134-2.183 0-1.29.027-2.066.075-2.156zm-3.413 8.58c-1.066 0-1.117-.068-.37-.49.564-.317.672-.338.962-.186.215.112.286.237.286.504v.171h-.878zm7.918-.17c-.014-.072.017-.16.07-.193.107-.069 1.745-.085 1.915-.02.061.024.111.12.111.215v.171l-1.035-.02c-.95-.017-1.038-.03-1.061-.152zm-8.797.949v-.425h1.757v.425H15.45zm1.176 1.01c-.242-.01-1.176-.479-1.176-.59 0-.038.382-.066.879-.066.872 0 .878 0 .878.165 0 .242-.308.502-.581.491zm.43 4.763c-.138-2.406-1.78-4.41-4.094-4.995-.522-.132-.798-.14-4.533-.14H4.452l-.363.17a2.383 2.383 0 00-1.084 1.074c-.164.337-.17.41-.193 2.156L2.79 29.21l.216.161.216.161v-1.881c0-2.027.016-2.138.393-2.636.098-.13.342-.322.542-.429l.365-.193h4.164c3.171 0 3.89 0 4.527.228.187.067.366.153.599.265l.057.028c1.71.821 2.713 2.439 2.836 4.573l.045.785 5.597.018 5.596.018.034-.177.034-.177-5.455-.018-5.454-.018-.045-.78zM5.782 25.405c.053-.152.04-.223-.063-.336-.103-.116-.216-.144-.573-.144-.394 0-.457.02-.557.174-.14.215-.077.45.135.503.086.021.344.03.573.017.383-.02.423-.037.485-.214zm-.498 3.174c.87-.748 2.222-1.37 3.315-1.523a6.474 6.474 0 017.132 4.681c.652 2.362-.013 4.794-1.772 6.477-1.311 1.256-2.97 1.87-4.798 1.777-2.79-.143-5.04-1.978-5.883-4.795-.18-.6-.246-2.004-.13-2.733.234-1.457 1.058-2.955 2.136-3.884zm50.594.697c.243-.267.339-.428.323-.542-.04-.276-.309-.247-.597.064-1.129 1.216-1.713 2.617-1.828 4.389-.041.62-.036.65.116.733.258.139.335-.024.419-.888.155-1.599.62-2.71 1.567-3.755zm27.86 3.829c-.1-1.665-.698-3.095-1.783-4.267-.154-.165-.324-.298-.378-.295-.357.02-.367.302-.021.636.927.895 1.554 2.396 1.68 4.017.041.549.073.67.187.731.1.054.167.05.248-.018.093-.078.104-.207.068-.804zm-18.145-.633c-.336-1.303-1.39-2.428-2.681-2.865-.507-.172-1.445-.24-1.973-.146-1.513.273-2.824 1.505-3.216 3.022-.133.515-.133 1.57 0 2.075.369 1.397 1.602 2.606 2.995 2.937 2.124.505 4.323-.837 4.875-2.976.138-.533.138-1.514 0-2.047zm13.255-1.88a3.995 3.995 0 00-1.69-1.022c-.561-.166-1.427-.2-1.964-.077-1.024.234-2.046.943-2.587 1.793-1.19 1.872-.687 4.368 1.127 5.591.678.457 1.253.654 2.052.703 1.127.07 2.164-.31 3-1.1.864-.814 1.287-1.816 1.276-3.02-.01-1.154-.387-2.044-1.214-2.869zM2.7 31.14c.433-.4.384-1.118-.1-1.447-.24-.163-1.887-.233-2.03-.085-.092.095-.129 1.432-.046 1.65.036.095.19.113.985.113h.943l.249-.23zm67.798-.737c.386-.434.431-.561.263-.73-.134-.136-.23-.144-1.785-.144-1.505 0-1.658.011-1.808.133-.2.164-.158.269.361.892.371.447.824 1.18.983 1.596.16.415.285.567.468.567.145 0 .209-.082.416-.54.28-.62.751-1.378 1.102-1.774zm-58.922-.171a4.553 4.553 0 00-.816-.384c-1.403-.484-2.9-.128-3.946.939-.763.777-1.13 1.667-1.132 2.747-.003 1.848 1.428 3.52 3.256 3.8 1.764.271 3.474-.727 4.17-2.435.225-.55.303-1.617.165-2.242-.2-.905-.906-1.914-1.697-2.425zm19.687 5.814v-5.95h-.562v5.95h.562zm6.677 0v-5.95h-.235c-.129 0-.255.021-.28.047-.027.026-.048 1.365-.048 2.975v2.928h.563zm-7.731-4.534v-1.346h-1.757v5.667h1.757v-3.967h-.695c-.697 0-.808-.04-.73-.265.022-.063.233-.089.728-.089h.697zm6.676-.009v-1.337h-5.06v1.344l2.091.019c2.038.018 2.09.022 2.09.16 0 .139-.052.143-2.09.16l-2.09.02v3.964h5.06v-3.957l-.194-.023c-.139-.016-.193-.062-.193-.164 0-.101.054-.148.193-.164l.193-.022zm3.514.01v-1.346h-1.897v1.344H40.4zM8.483 34.71c-.925-.797-.645-2.303.502-2.708 1.064-.376 2.111.374 2.106 1.51a1.564 1.564 0 01-2.608 1.198zm31.916 1.123v-3.967h-1.897v3.967H40.4zm20.18-1.154c-.93-.89-.52-2.44.728-2.746.324-.08.403-.075.813.047 1.161.345 1.506 1.85.619 2.7-.264.252-.732.445-1.08.445-.349 0-.817-.193-1.08-.446zm14.2-.162c-.712-.871-.305-2.198.784-2.552.978-.317 2.036.481 2.037 1.537.001 1.51-1.866 2.182-2.82 1.015zm7.767-1.567c.304-.074.326-.224.073-.5a.505.505 0 00-.31-.159c-.152 0-.159.02-.117.337.024.185.053.348.065.362.011.014.141-.004.288-.04zm-40.803-.021l-.022-.266-.021-.265-.405-.022-.404-.02v.573h.852zm10.674-.142c-.203 0-.492-.207-.492-.354 0-.046-1.452-.07-4.217-.07h-4.216V33h.51c.592 0 5.385.117 7.308.178l1.318.041v-.216c0-.192-.023-.216-.211-.216zm2.99.266c.008-.01.036-.17.063-.354l.048-.337h-.28c-.245 0-.295.03-.391.224-.061.123-.11.231-.11.241 0 .026.653.246.67.226zm-45.44 1.381c.765-.387.754-1.509-.018-1.862-.163-.075-.36-.136-.437-.136-.27 0-.716.262-.868.51-.544.887.404 1.953 1.323 1.488zm52.147 0c.764-.387.748-1.511-.027-1.866-.362-.166-.496-.165-.866.004-.377.173-.58.498-.581.93 0 .78.79 1.279 1.474.932zm14.928-.926a1.03 1.03 0 00-.477-.887c-.43-.283-.977-.187-1.328.233-.321.385-.342.865-.055 1.271.567.803 1.86.374 1.86-.617z" fill="#0B225C"/><path fill-rule="evenodd" clip-rule="evenodd" d="M50.507.075c-.16.128-.241.488-.37 1.652-.26 2.353-.796 8.762-1.234 14.747-.178 2.44-.21 9.564-.045 9.958.151.36.353.496.79.533.354.03.387.046.356.183l1.289-.03s.1-.139 7.613-.139h7.613l4.04.033c-.019-.018.17-.033.418-.034.078 0 .16.004.247.014l6.177.344 3.093.04 7.555.098c3.584.046 4.531.078 4.814.16.585.174 1.22.47 2.132.994.988.567 1.532.785 2.353.94.626.118 1.992.156 12.803.351 3.363.06 9.087.173 12.721.25 3.633.076 6.82.138 7.081.139h.474v.69c0 .564.026.734.14.922.12.198.178.23.421.23h.282v.855c0 .47.033.916.073.991.057.108.15.138.439.14.21 0 .425.046.503.106.181.137.428.131.677-.017.192-.114.224-.113.642.022l.44.142.156.612a6.194 6.194 0 001.755 3.037c2.519 2.443 6.507 2.316 8.893-.282.756-.823 1.146-1.605 1.59-3.191.036-.128.145-.205.434-.306.374-.13.405-.131.935-.012.301.068.57.158.597.2.027.041.085.254.13.472a6.315 6.315 0 004.534 4.682c.823.224 2.297.223 3.116-.003 2.254-.62 3.945-2.359 4.483-4.605l.156-.651.38-.113c.349-.103.397-.103.573.002.24.143.489.147.667.01.077-.058.292-.104.492-.105.195-.002.392-.041.439-.088.057-.057.084-.38.084-.992v-.906h.27c.354 0 .514-.181.557-.629l.033-.346.344-.034c.414-.04.607-.198.66-.541.082-.535.19-.805.429-1.071.439-.49.535-.504 3.083-.443l2.249.054.036.547c.03.48.059.572.229.744.189.19.222.197 1.072.22l.877.023v1.89l-.92.023c-.908.023-.922.026-1.089.222-.153.18-.169.263-.169.873 0 .655.006.68.21.887l.211.212 1.06-.023 1.061-.023.17-.199.169-.198v-9.605l-.161-.24a1.194 1.194 0 00-.369-.347c-.184-.094-7.1-.109-60.77-.124l-60.563-.018-.018-11.757L52.101.49l-.229-.23c-.209-.21-.272-.232-.737-.255-.35-.016-.547.006-.628.07zm.891 26.16V.735l-.187-.021c-.102-.012-.203.006-.224.04-.101.165-.643 6.255-1.17 13.156l-.281 3.684v8.68l.93-.019.932-.02zm121.884 1.275c.011-1.324.002-2.48-.019-2.567l-.039-.16H52.136v1.488h59.729c55.435 0 59.735.008 59.825.117.073.089.105.522.131 1.824l.035 1.707h1.406l.02-2.409zm-38.847 1.845c.432-.48.48-.586.335-.733-.131-.132-.242-.102-.509.134-.655.58-1.377 1.862-1.651 2.933-.08.312-.175.886-.212 1.276-.055.586-.049.735.037.867.118.182.131.186.316.086.108-.058.136-.15.136-.448 0-.566.202-1.643.425-2.26a5.368 5.368 0 011.123-1.855zm27.818 3.007c-.19-1.331-.911-2.807-1.74-3.563-.159-.144-.334-.262-.391-.262-.09 0-.248.2-.248.314 0 .022.198.259.439.526.521.575.85 1.11 1.087 1.764.217.598.442 1.742.442 2.246 0 .51.205.741.445.5.114-.115.104-.557-.034-1.525zm-18.096-.013c-.373-1.28-1.487-2.4-2.764-2.779-.563-.166-1.428-.2-1.97-.077-1.947.443-3.328 2.255-3.212 4.215.082 1.38.735 2.51 1.883 3.257.865.564 2.054.774 3.046.538 2.28-.541 3.669-2.916 3.017-5.154zm14.293-.213c-.531-1.373-1.65-2.345-3.041-2.642-2.044-.436-4.108.835-4.715 2.904-.181.619-.169 1.63.027 2.266.565 1.832 2.26 3.03 4.128 2.917 1.302-.08 2.406-.71 3.118-1.782.533-.803.678-1.31.672-2.339-.004-.74-.029-.91-.189-1.324zm-9.567-1.444c.65-.85.656-.862.459-1.026-.154-.127-.285-.137-1.792-.135-.974.002-1.676.031-1.75.075-.208.122-.143.391.186.764.455.517.708.912 1.07 1.672.299.628.34.68.51.66.157-.018.238-.128.544-.745.197-.399.545-.968.773-1.265zM134.156 32.2a7.51 7.51 0 00.066-.372c0-.018-.159-.032-.354-.032-.381 0-.375-.007-.486.495-.127.578-.114.611.276.689l.351.07.041-.255c.022-.14.07-.409.106-.596zm27.227.362a5.659 5.659 0 00-.098-.54c-.043-.163-.092-.194-.344-.213-.162-.012-.294-.012-.294 0 0 .083.219 1.152.24 1.173.015.015.143.005.285-.022l.259-.049-.048-.349zm11.914 1.5v-.779h-1.476v.78h1.476z" fill="#0B225C"/><path fill-rule="evenodd" clip-rule="evenodd" d="M154.287 31.93c-1.031.267-1.547 1.357-1.092 2.304.621 1.294 2.594 1.084 2.961-.315.296-1.127-.781-2.272-1.869-1.99zm1.37 1.548c0-.269-.215-.638-.493-.845-.189-.141-.56-.209-.83-.152-.242.05-.686.532-.739.8-.1.505.281 1.127.767 1.25.64.161 1.295-.371 1.295-1.053zm-15.859-1.513a1.54 1.54 0 00-.92.738c-.159.273-.193.415-.191.793.006.964.623 1.586 1.579 1.591.377.002.516-.033.792-.196a1.579 1.579 0 00.401-2.408c-.447-.512-1.075-.708-1.661-.518zm1.482 1.524c-.006-.371-.139-.62-.456-.855-.215-.158-.678-.222-.909-.124a1.343 1.343 0 00-.604.575c-.442.855.66 1.854 1.448 1.314.383-.263.527-.514.521-.91z" fill="#0B225C"/></svg>