<svg width="174" height="40" viewBox="0 0 174 40" fill="none" xmlns="http://www.w3.org/2000/svg"><path fill-rule="evenodd" clip-rule="evenodd" d="M146.279 32.489c-1.033.33-1.419 1.57-.743 2.386.906 1.09 2.679.462 2.677-.95-.001-.987-1.005-1.733-1.934-1.436zm1.404 1.442a.957.957 0 00-.453-.829c-.407-.265-.927-.175-1.26.218-.305.36-.325.808-.052 1.188.538.75 1.765.35 1.765-.577zM73.47 28.162l-4.441-.244-1.423-.078c.276.03.623.116 1.21.295.56.17 1.018.332 1.018.36 0 .028-.087.07-.193.093-.137.03-.55-.066-1.415-.328-.671-.204-1.234-.384-1.252-.401l-2.71-.022-1.124-.01.245.595c.135.327.245.61.245.63 0 .018-.26.034-.578.034-.452 0-.606.025-.705.113-.101.091-.148.098-.239.034-1.259-.888-2.82-1.317-4.186-1.15-1.121.137-2.062.5-2.93 1.129-.431.313-.492.337-.849.337-.354 0-.386-.012-.425-.166-.06-.233-.337-.43-.607-.43-.177 0-.297.066-.548.299l-.32.297h-2.885l-.103-.197c-.057-.109-.175-.216-.262-.237-.14-.035-.166-.098-.232-.534-.036-.244-.084-1.523-.084-1.523l-1.223.028c-.018.078-.06 1.254-.105 1.515-.071.41-.104.48-.238.514-.086.022-.222.128-.303.237l-.147.197h-3.778v-4.782c0-4.363 0-4.877-.225-5.008a.5.5 0 00-.102-.04l-.005-.002c-.133-.042-.135-.094-.135-3.63 0-3.436-.005-3.596-.13-3.799-.12-.194-.44-.35-.724-.35-.07-.001-.085-4.681-.075-7.467.009-2.643-.008-3.468-.072-3.588-.109-.2-.108-.629.001-.76l.06-.123s-.478.118-.655.294c-.392.39-.406.53-.406 4.245 0 2.648-.017 7.398-.083 7.398-.046 0-.198.032-.337.07-.318.088-.513.382-.513.775v.283l-.334-.216V9.003c0-3.221 0-3.704-.231-3.871-.04-.03-.089-.05-.145-.073l-.017-.007a.953.953 0 00-.487-.036c-.727.117-5.2.93-6.759 1.23-7.012 1.348-10.259 3.1-11.21 6.052l-.15.462-.524-.019a9.05 9.05 0 00-2.124.22c-.53.134-1.398.562-1.752.862-.232.198-.283.283-.283.472 0 .308.141.56.463.828l.268.223-.355 1.688a86.367 86.367 0 00-.514 2.635c-.14.826-.176.95-.294.976-.075.016-1.336.106-2.804.198-6.521.412-7.505.53-8.381 1.003-.36.194-.772.619-.832.856-.032.125-.093.146-.524.173-.748.048-1.22.37-1.426.972-.095.279-.109 5.478-.015 5.722.06.158.053.163-.304.193-.285.023-.407.07-.546.207-.174.173-.18.203-.198 1.054-.02.992.023 1.14.387 1.326.195.1.369.116 1.1.1 1.012-.024 1.273-.118 1.6-.578.184-.258.2-.328.201-.832 0-.532.01-.562.267-.934.405-.585 1.153-1.302 1.79-1.714.669-.433 1.11-.636 1.902-.876.525-.159.681-.175 1.744-.18 1.392-.006 1.9.101 2.972.626 2.382 1.165 3.851 3.583 3.756 6.183-.014.368.003.635.039.635.034 0 1.055-.075 2.268-.166 2.168-.164 2.208-.17 2.353-.331.172-.193.338-.21.457-.049.077.105.264.118 1.938.136 1.779.018 1.86.014 2.037-.116.252-.185.54-.179.625.013.119.27.72.238.791-.041.022-.087.099-.173.17-.192.125-.032.131.014.151 1.156.02 1.089.032 1.198.15 1.284.098.07.363.094 1.06.094.802 0 .943.016 1.014.113.062.084.21.12.564.14.412.024.509.007.672-.113.187-.136.25-.14 2.629-.14 1.34 0 2.438.025 2.438.056 0 .228 1.014.288 1.285.076.153-.119.27-.132 1.164-.132.752 0 1.025-.023 1.123-.094.116-.083.132-.194.152-1.026l.021-.933 1.046.006c.575.003 3.685.07 6.911.149l5.866.143.115.464c.492 1.987 1.942 3.575 3.83 4.199.822.27 1.469.36 2.268.315a5.953 5.953 0 004.668-2.718c.349-.543.559-1.036.736-1.73l.153-.594.405-.119c.39-.113.426-.114.918 0l.512.117.158.596c.568 2.135 2.127 3.703 4.258 4.281.777.211 2.177.212 2.958.003a5.97 5.97 0 002.637-1.466c.881-.829 1.422-1.845 1.737-3.26.031-.14.106-.198.376-.287.309-.102.354-.102.56-.005.292.137.316.135.833-.065.603-.235.672-.33.672-.93 0-.448.011-.489.136-.489.075 0 .212-.075.303-.166.129-.127.236-.165.466-.165h.298l-.036-2.814-.696-.02c-.716-.019-.871-.07-.871-.286 0-.116-.064-.125-.877-.125h-.877l-.321-.297c-.238-.221-.375-.299-.529-.299-.294 0-.462.11-.572.37-.09.214-.113.226-.419.226-.276 0-.372-.038-.65-.257-.453-.358-1.151-.727-1.787-.945l-.54-.185zM41.527.488C41.527.385 41.5 0 42 0s.277 1.018-.116 1.018c-.166 0-.357-.283-.357-.53zm-.378 4.437c.043 0 .067-.607.067-1.689 0-1.081-.024-1.688-.067-1.688-.043 0-.067.607-.067 1.688 0 1.082.024 1.689.067 1.689zm-2.668 7.872V9.223c0-1.967-.008-3.573-.017-3.57-.01.004-.422.08-.917.167-6.744 1.202-8.762 1.627-10.689 2.25-3.055.99-4.838 2.182-5.627 3.762-.165.332-.306.692-.314.8l-.014.2 1.781.134c.98.075 1.797.151 1.816.17.077.076-2.773.278-4.564.324-1.525.04-1.974.072-2.268.165-.382.12-1.137.48-1.367.652-.13.097-.13.101-.007.237.07.076.287.214.483.306l.357.167v2.46c0 2.36-.006 2.472-.14 2.746-.183.377-.48.61-1.11.873-.655.273-.861.297-4.72.544-5.021.322-6.087.437-6.78.733-.305.13-.717.484-.646.555.02.02 1.697.125 3.727.234 2.03.108 3.7.207 3.71.218.012.01-1.968.059-4.398.106-3.324.065-4.473.108-4.635.173a.88.88 0 00-.351.306c-.132.212-.135.303-.118 2.846l.017 2.627.162.17c.09.094.185.171.213.171.028 0 .06-.782.072-1.738l.02-1.738.187-.377c.237-.479.792-.988 1.298-1.191l.383-.154h3.87c3.79 0 3.88.003 4.456.149 2.404.608 4.13 2.536 4.419 4.933l.046.38h9.997l.327-.324v-7.792c0-5.947.02-7.857.082-8.065.107-.358.599-.846.96-.953.206-.06 1.532-.08 5.287-.08h5.012zm3.268 16.095V12.665h-1.601l.034 16.19 1.567.037zm-2.301-14.9l-.503-.5-5.218-.015-.728-.002c-4.214-.014-4.73-.015-4.943.237-.03.035-.053.075-.08.12l-.035.057c-.132.212-.134.323-.134 7.757 0 7.177.006 7.552.122 7.767.067.124.224.28.35.346.214.115.516.122 5.365.122 4.85 0 5.152-.007 5.366-.122.125-.066.283-.223.35-.347.117-.217.122-.558.105-7.824l-.017-7.597zm1.784 6.95c-.01-3.66-.002-6.694.017-6.743.018-.049.071-.076.117-.06.066.021.083 1.43.083 6.742 0 5.925-.012 6.715-.1 6.715-.088 0-.102-.791-.117-6.654zm-23.398-6.107c.073-.1.254-.24.4-.314.258-.13.387-.134 3.739-.134 3.468 0 3.471 0 3.767.149.176.088.351.243.431.38.133.228.136.343.153 7.085l.018 6.853-.151.294a1.44 1.44 0 01-.34.43c-.185.134-.259.137-3.874.137H18.29l-.243-.184a.886.886 0 01-.315-.43c-.05-.172-.066-2.355-.052-7.166.02-6.8.022-6.922.153-7.1zm7.974.47l-.392-.389h-3.432c-3.37 0-3.435.003-3.607.138l-.176.137v13.757l.146.135c.143.133.216.135 3.628.135 3.33 0 3.49-.005 3.64-.126l.158-.127.035-13.66zm-7.069.398a.493.493 0 01.217-.19c.08-.032 1.46-.06 3.067-.063l2.922-.004.327.325v3.852l-.331.33-6.018-.038-.127-.156c-.12-.146-.128-.284-.128-2.04 0-1.207.026-1.932.071-2.016zm-3.24 8.02c-1.01 0-1.06-.064-.35-.457.535-.297.637-.316.912-.175.205.105.272.222.272.472v.16H15.5zm7.516-.158c-.013-.068.017-.15.066-.181.102-.064 1.657-.08 1.819-.018.058.022.105.112.105.2v.16l-.983-.018c-.901-.017-.985-.029-1.007-.143zm-8.35.886v-.397h1.668v.397h-1.668zm1.116.945c-.229-.01-1.116-.448-1.116-.552 0-.035.363-.062.834-.062.829 0 .834.001.834.154 0 .227-.292.47-.552.46zm.41 4.451a5.1 5.1 0 00-3.888-4.669c-.495-.123-.757-.131-4.303-.13H4.225l-.344.16a2.244 2.244 0 00-1.028 1.003c-.156.315-.163.383-.183 2.015l-.022 1.689.41.3v-1.758c0-1.895.016-1.999.373-2.464.093-.12.325-.301.515-.4l.346-.182h3.952c3.011 0 3.693 0 4.298.214.177.062.348.143.568.247l.055.026c1.623.768 2.575 2.28 2.692 4.275l.043.734 10.624.034.064-.331-10.355-.034-.043-.729zm-10.704-3.49c.05-.143.038-.209-.059-.315-.099-.108-.205-.134-.544-.134-.374 0-.434.018-.53.162-.132.201-.072.42.129.47.081.02.327.028.544.017.363-.018.402-.035.46-.2zm-.472 2.967c.825-.7 2.109-1.28 3.146-1.425 3.047-.422 5.953 1.456 6.77 4.377.619 2.207-.013 4.48-1.682 6.054-1.245 1.174-2.82 1.748-4.554 1.66-2.648-.132-4.785-1.848-5.584-4.481-.17-.562-.234-1.874-.123-2.555.221-1.361 1.003-2.762 2.027-3.63zm48.024.651c.23-.25.321-.4.306-.506-.037-.258-.293-.232-.566.059-1.072 1.137-1.626 2.447-1.736 4.103-.038.58-.034.608.11.685.245.13.318-.022.398-.83.148-1.494.588-2.533 1.488-3.51zm26.445 3.58c-.096-1.557-.663-2.893-1.693-3.989-.146-.155-.307-.279-.358-.276-.34.019-.349.282-.02.594.88.837 1.475 2.24 1.593 3.756.04.512.07.625.179.683.095.05.158.046.235-.017.088-.073.099-.194.064-.752zm-17.223-.592c-.32-1.218-1.32-2.27-2.546-2.679-.48-.16-1.37-.225-1.872-.136-1.436.255-2.68 1.406-3.053 2.825-.126.482-.126 1.468 0 1.94.35 1.305 1.52 2.436 2.843 2.745 2.016.472 4.103-.783 4.628-2.782.13-.498.13-1.415 0-1.913zm12.58-1.758a3.804 3.804 0 00-1.603-.955c-.533-.155-1.355-.187-1.865-.072-.971.218-1.941.88-2.455 1.676-1.13 1.75-.653 4.083 1.07 5.227.643.427 1.19.61 1.947.657a3.763 3.763 0 002.849-1.029c.819-.76 1.22-1.697 1.21-2.823-.01-1.078-.367-1.911-1.152-2.681zm-72.278.513a.866.866 0 00-.094-1.353c-.23-.153-1.793-.218-1.93-.08-.086.09-.121 1.34-.042 1.543.034.089.18.105.935.105h.894l.237-.215zm64.354-.69c.366-.405.41-.524.25-.682-.127-.127-.218-.134-1.695-.134-1.428 0-1.573.01-1.715.124-.19.153-.15.251.342.834.353.417.782 1.103.933 1.491.152.388.27.53.444.53.138 0 .198-.076.395-.504.266-.58.713-1.289 1.046-1.658zm-55.929-.16a4.349 4.349 0 00-.774-.359 3.595 3.595 0 00-3.746.878c-.724.727-1.072 1.559-1.074 2.568-.004 1.728 1.355 3.29 3.09 3.553 1.675.253 3.298-.68 3.96-2.277.211-.513.286-1.511.155-2.096-.19-.845-.86-1.788-1.61-2.266zm18.687 5.435v-5.562h-.534v5.562h.534zm6.337 0v-5.562h-.222c-.122 0-.242.02-.267.044-.024.025-.044 1.276-.044 2.781v2.737h.533zm-7.338-4.237v-1.259h-1.667v5.298h1.667v-3.708h-.66c-.66 0-.766-.038-.692-.249.02-.058.222-.083.69-.083h.662zm6.338-.01v-1.248h-4.803v1.256l1.984.017c1.935.017 1.985.021 1.985.15 0 .13-.05.133-1.985.15l-1.984.018v3.706h4.803v-3.7l-.184-.02c-.132-.016-.183-.059-.183-.154s.051-.138.183-.153l.184-.021zm3.335.01v-1.259h-1.8v1.259h1.8zM8.052 35.054a1.48 1.48 0 01.476-2.532c1.01-.351 2.004.35 2 1.41-.005 1.296-1.483 1.965-2.476 1.122zm30.295 1.05v-3.708h-1.8v3.708h1.8zm19.155-1.08a1.503 1.503 0 01.691-2.566c.308-.075.382-.07.772.044 1.102.322 1.43 1.729.587 2.523-.25.236-.695.416-1.025.416-.33 0-.775-.18-1.025-.416zm13.48-.15c-.677-.815-.29-2.056.743-2.386.928-.297 1.933.45 1.933 1.437.002 1.41-1.771 2.04-2.677.948zm7.37-1.465c.29-.07.31-.21.07-.467a.482.482 0 00-.293-.15c-.145 0-.151.02-.112.315.023.173.05.326.061.339.012.013.135-.004.275-.037zm-38.73-.02l-.04-.497-.768-.04v.537h.809zm10.133-.133c-.194 0-.467-.194-.467-.33 0-.044-1.38-.067-4.003-.067h-4.002v.596h.483c.563 0 5.112.11 6.938.166l1.25.039v-.202c0-.18-.02-.202-.2-.202zm2.837.248c.008-.009.035-.157.06-.33l.046-.315h-.266c-.232 0-.28.027-.371.209a2.314 2.314 0 00-.105.225c0 .025.62.23.636.212zM9.461 34.797c.726-.362.716-1.41-.017-1.74-.155-.07-.342-.128-.416-.128-.256 0-.678.245-.823.477-.516.83.384 1.825 1.256 1.39zm49.498 0c.725-.362.71-1.413-.026-1.745-.343-.155-.47-.154-.822.004-.358.162-.55.466-.551.87a.963.963 0 001.4.87zm14.17-.866a.957.957 0 00-.453-.829c-.408-.265-.928-.175-1.26.218-.306.36-.325.808-.053 1.188.538.75 1.766.35 1.766-.577z" fill="#0B225C"/><path d="M67.606 27.176v.664l1.423.078v-.742h-1.423zm-4.466 0v.652l1.124.009v-.66H63.14z" fill="#0B225C"/><path fill-rule="evenodd" clip-rule="evenodd" d="M47.454 27.086l1.223-.028 29.759.153 6.303 1.965.014 2.734-.014 2.678h.238v.706h-.463v.47h1.552v-.47h-.405v-.706h.238v-5.412l3.962.044h2.873v.564l-1.99-.03h-2.08v5.916l25.527.085-.073-5.935-2.329-.036v-.608l5.897.044h8.226l-.328.826c-.453 1.144-.833 3.245-.888 4.914l-.047 1.402 1.269.067c1.087.057 1.29.105 1.417.333 1.625 2.903 5.189 4.05 8.028 2.582.918-.475 2.051-1.544 2.477-2.336l.31-.58h2.975l.437.723c.481.795 1.573 1.835 2.32 2.21.263.133.957.346 1.541.474.908.198 1.203.21 2.026.076 1.831-.298 3.184-1.153 4.169-2.635l.564-.847h1.832v1.118c0 1.2.193 1.632.542 1.217.132-.158.154-.757.094-2.572-.087-2.615-.34-4.486-.772-5.704-.156-.44-.477-1.382-.477-1.382h19.515v3.257H174v-4.322l-1.084-1.132h-45.169l-2.163 1.133H85.899l-6.479-2.16H46.253v1.204h1.201zm105.514 2.835c-.357-.747-1.059-1.513-1.721-1.88-.369-.203-1.392-.225-11.409-.246-6.292-.013-11.182.03-11.422.098-.602.176-1.557 1.058-1.985 1.837-.49.889-.832 2.276-1.039 4.205-.129 1.205-.132 1.616-.012 1.735.248.245.368-.068.544-1.427.475-3.664 1.535-5.82 3.001-6.103.322-.062 5.263-.112 10.981-.112h1.808c8.023-.002 9.226-.002 9.767.59.095.103.17.226.258.37.035.058.072.12.114.184.723 1.128 1.323 3.139 1.548 5.187.131 1.202.193 1.402.431 1.402.192 0 .206-.161.124-1.368-.112-1.63-.526-3.504-.988-4.472zm-58.696-.2c5.947-.03 13.599.033 13.599.033v-.534c-6.744-.035-13.6 0-13.6 0v.501zm41.651 4.446c0-1.41-.893-2.72-2.138-3.14-2.025-.682-4.087.567-4.416 2.675-.186 1.188.548 2.564 1.703 3.192 2.166 1.178 4.851-.331 4.851-2.727zm13.666-1.562c-.387-.737-1.26-1.455-1.988-1.636-1.623-.404-3.133.232-3.882 1.636-.455.852-.423 2.22.071 3.052 1.307 2.198 4.342 2.227 5.694.054.352-.566.404-.775.401-1.602-.004-.707-.079-1.093-.296-1.504zm-55.356.36l.038 1.528h13.772v-3.338l-6.727.05h-7.083s-.021.921 0 1.76zm15.032-1.844v3.423l3.543.044-.04-3.433-3.503-.034zm-16.344 3.372v-3.288H90.02v3.364l2.902-.076z" fill="#0B225C"/><path fill-rule="evenodd" clip-rule="evenodd" d="M132.236 32.489c-1.034.33-1.42 1.57-.744 2.386.906 1.09 2.679.462 2.677-.95-.001-.987-1.005-1.733-1.933-1.436zm1.404 1.442a.957.957 0 00-.453-.829c-.408-.265-.928-.175-1.261.218-.305.36-.324.808-.052 1.188.538.75 1.766.35 1.766-.577zm14.043 0a.957.957 0 00-.453-.829c-.407-.265-.927-.175-1.26.218-.305.36-.325.808-.052 1.188.538.75 1.765.35 1.765-.577zm-2.147.944c-.676-.815-.29-2.056.743-2.386.929-.297 1.933.45 1.934 1.437.002 1.41-1.771 2.04-2.677.948z" fill="#0B225C"/></svg>