<svg width="92" height="40" viewBox="0 0 92 40" fill="none" xmlns="http://www.w3.org/2000/svg"><path fill-rule="evenodd" clip-rule="evenodd" d="M82.789 26.847l-6.608-.358c.31.034.702.13 1.364.328.63.19 1.147.37 1.147.4 0 .031-.098.078-.218.103-.154.034-.62-.073-1.594-.364-.756-.226-1.391-.427-1.41-.446l-4.321-.034.276.66c.152.364.276.678.276.7 0 .02-.293.038-.652.038-.51 0-.683.027-.794.125-.114.102-.166.109-.269.038-1.419-.986-3.178-1.463-4.718-1.277-1.263.151-2.322.554-3.3 1.253-.487.349-.556.376-.957.376-.4 0-.436-.014-.48-.185-.066-.26-.379-.477-.683-.477-.2 0-.335.072-.618.33l-.361.332h-3.251l-.116-.22c-.064-.12-.196-.24-.294-.263-.157-.039-.188-.109-.262-.593a10.277 10.277 0 01-.083-.693l-1.379.031c-.02.086-.078.394-.13.684-.08.455-.116.534-.267.571-.097.024-.25.142-.342.263l-.166.22h-4.256v-5.314c0-4.848 0-5.419-.254-5.565a.558.558 0 00-.115-.044l-.006-.002c-.15-.046-.151-.105-.152-4.033 0-3.819-.006-3.997-.146-4.221-.135-.216-.496-.39-.816-.39-.08 0-.096-.72-.085-3.815.01-2.937-.009-3.854-.081-3.987-.123-.223-.121-.7.002-.844.052-.062.082-.124.066-.137-.085-.07-.537.131-.737.326-.442.433-.458.59-.458 4.717 0 2.942-.02 3.74-.093 3.74-.052 0-.223.035-.38.077-.359.098-.578.425-.579.862v.314l-.188-.12-.188-.12V5.56c0-3.579 0-4.116-.26-4.301a.784.784 0 00-.163-.08l-.02-.008a1.088 1.088 0 00-.549-.04c-.818.13-5.858 1.033-7.615 1.366-7.901 1.498-11.56 3.445-12.633 6.724l-.168.513-.59-.02c-.687-.024-1.75.085-2.395.245-.596.148-1.575.623-1.973.957-.262.22-.32.315-.32.524 0 .343.16.623.523.92l.301.248-.4 1.876a99.336 99.336 0 00-.58 2.927c-.156.919-.198 1.056-.33 1.085-.084.018-1.505.117-3.16.22-7.348.458-8.456.588-9.444 1.115-.404.215-.87.687-.937.95-.036.14-.106.163-.59.193-.844.053-1.376.41-1.608 1.08-.107.31-.122 6.086-.017 6.358.069.175.06.18-.343.214-.32.026-.458.077-.615.23-.196.192-.202.225-.222 1.171-.024 1.102.025 1.267.435 1.474.22.111.416.129 1.24.11 1.14-.026 1.434-.13 1.803-.642.207-.287.226-.364.227-.924 0-.591.01-.624.3-1.038.456-.65 1.3-1.447 2.017-1.905.754-.48 1.25-.706 2.144-.973.591-.176.767-.194 1.965-.2 1.568-.006 2.14.113 3.349.695 2.684 1.295 4.34 3.982 4.232 6.87-.015.41.003.707.044.707.039 0 1.19-.084 2.556-.185 2.443-.182 2.488-.189 2.65-.368.195-.215.382-.234.516-.054.087.116.298.13 2.184.15 2.004.021 2.096.016 2.296-.128.283-.206.608-.199.704.015.134.3.812.264.891-.046.025-.097.112-.193.192-.213.14-.036.148.015.17 1.284.021 1.21.036 1.331.17 1.427.109.078.408.104 1.194.104.903 0 1.062.018 1.142.126.07.093.237.134.636.156.463.026.573.007.757-.126.21-.152.282-.156 2.962-.156 1.51 0 2.747.028 2.747.062 0 .253 1.143.32 1.449.085.171-.132.305-.147 1.31-.147.849 0 1.157-.025 1.267-.104.13-.093.148-.216.17-1.14l.025-1.036 1.178.006c.648.003 4.153.077 7.788.165l6.61.16.129.514c.555 2.208 2.188 3.973 4.317 4.666.925.3 1.654.401 2.555.35 2.143-.119 4.105-1.245 5.26-3.02.393-.603.63-1.15.83-1.921l.171-.661.457-.132c.439-.126.48-.126 1.034 0l.577.13.179.662c.639 2.372 2.396 4.114 4.797 4.757.876.234 2.453.236 3.333.003a6.755 6.755 0 002.972-1.629c.993-.921 1.603-2.05 1.957-3.621.036-.158.12-.221.424-.32.348-.113.4-.114.631-.006.33.153.357.15.938-.072.68-.26.758-.366.758-1.033 0-.498.013-.544.154-.544.084 0 .238-.082.341-.183.145-.142.266-.184.525-.184H92l-.02-1.564-.02-1.563-.785-.021c-.806-.022-.982-.079-.982-.32 0-.127-.072-.137-.988-.137h-.989l-.361-.331c-.268-.246-.422-.331-.596-.331-.33 0-.52.12-.644.41-.101.238-.128.252-.472.252-.311 0-.42-.043-.732-.286-.511-.398-1.299-.808-2.015-1.05l-.607-.206zM46.794.579a.85.85 0 01.127-.399c.154-.23.267-.237.527-.037.373.287.192 1.025-.251 1.025-.188 0-.403-.315-.403-.589zm-.426 4.93c.048 0 .075-.675.075-1.877 0-1.201-.026-1.876-.075-1.876-.048 0-.075.675-.075 1.876 0 1.202.027 1.876.075 1.876zm-3.007 4.266V5.803c0-2.185-.008-3.97-.018-3.966-.01.004-.476.087-1.034.185-7.6 1.335-9.873 1.807-12.044 2.5-3.442 1.1-5.452 2.424-6.34 4.18-.187.368-.346.768-.355.89l-.016.22 2.008.15c1.104.082 2.025.167 2.046.188.086.085-3.125.31-5.144.36-1.718.044-2.224.08-2.556.183-.43.134-1.28.535-1.54.725-.146.108-.147.113-.007.264.078.084.323.237.544.34l.402.186v2.733c0 2.622-.006 2.746-.157 3.051-.207.419-.541.677-1.251.97-.739.303-.97.33-5.32.604-5.657.358-6.858.486-7.64.815-.342.144-.807.537-.727.616.022.022 1.912.139 4.2.26 2.287.12 4.168.23 4.181.242.013.012-2.218.066-4.957.118-3.745.072-5.04.12-5.222.192a.988.988 0 00-.396.34c-.148.236-.152.337-.133 3.162l.02 2.919.182.19c.1.104.208.19.24.19s.068-.87.08-1.932l.024-1.931.21-.419c.267-.532.893-1.098 1.463-1.323l.432-.17h4.36c4.27 0 4.373.002 5.021.164 2.71.676 4.655 2.818 4.98 5.482l.051.423h11.266l.184-.18.184-.181v-8.658c0-6.608.022-8.73.092-8.96.121-.399.675-.941 1.082-1.06.232-.067 1.726-.09 5.958-.09h5.648zm3.684 17.883V9.628H45.24l.02 8.994.018 8.994.884.021.883.02zm-2.593-16.556l-.284-.277-.283-.277-5.88-.018-.82-.002c-4.748-.015-5.33-.017-5.57.263-.034.04-.06.084-.091.135l-.039.063c-.149.235-.15.358-.15 8.618 0 7.975.006 8.392.136 8.63.076.138.253.311.394.385.242.127.582.135 6.047.135 5.464 0 5.805-.008 6.046-.135.141-.074.319-.248.395-.386.132-.241.137-.62.118-8.693l-.02-8.44zm2.01 7.723c-.01-4.067-.003-7.438.019-7.492.02-.054.08-.085.132-.068.074.024.094 1.59.094 7.492 0 6.583-.014 7.461-.113 7.461-.1 0-.115-.879-.132-7.393zM20.096 12.04a1.49 1.49 0 01.451-.35c.29-.144.436-.149 4.213-.149 3.907 0 3.912 0 4.245.166.198.098.396.27.486.423.15.253.152.38.172 7.872l.02 7.614-.17.327c-.094.18-.266.395-.383.478-.208.149-.292.152-4.366.152h-4.153l-.274-.205a.985.985 0 01-.355-.478c-.056-.19-.074-2.616-.058-7.962.021-7.554.024-7.691.172-7.889zm8.985.522l-.22-.216-.221-.216h-3.867c-3.799 0-3.87.002-4.065.152l-.198.153V27.72l.164.15c.161.147.244.15 4.089.15 3.751 0 3.931-.006 4.101-.14l.177-.141.02-7.59.02-7.588zm-7.965.442a.553.553 0 01.244-.212c.09-.035 1.646-.067 3.457-.07l3.292-.004.184.18.185.181v4.28l-.187.184-.187.182-3.39-.02-3.39-.02-.145-.174c-.133-.162-.143-.316-.143-2.268 0-1.34.029-2.146.08-2.24zm-3.65 8.91c-1.14 0-1.195-.07-.395-.507.602-.33.717-.351 1.028-.194.23.116.306.246.306.524v.178h-.94zm8.468-.175c-.015-.076.019-.166.075-.2.114-.072 1.867-.09 2.05-.021.064.024.118.124.118.223v.177l-1.108-.02c-1.015-.019-1.11-.032-1.135-.159zm-9.408.985v-.442h1.879v.441h-1.88zm1.257 1.05c-.258-.01-1.257-.498-1.257-.614 0-.039.408-.068.94-.068.933 0 .939 0 .939.17 0 .253-.33.523-.622.511zm.461 4.946c-.149-2.5-1.905-4.58-4.38-5.188-.559-.137-.853-.146-4.849-.145H4.761l-.388.177c-.482.22-.92.642-1.158 1.115-.176.35-.183.426-.207 2.239l-.024 1.877.23.167.232.167v-1.954c0-2.106.018-2.221.42-2.738.105-.134.366-.335.58-.445l.39-.201H9.29c3.393 0 4.16 0 4.843.237.2.07.392.16.64.275l.061.029c1.83.853 2.902 2.533 3.034 4.75l.048.815 5.986.019 5.986.019.036-.184.036-.184-5.834-.02-5.834-.018-.048-.81zm-12.06-3.88c.056-.158.042-.231-.068-.35-.11-.12-.23-.149-.613-.149-.421 0-.489.02-.596.18-.15.224-.082.468.144.523.092.023.369.031.614.019.41-.02.452-.04.518-.223zm-.533 3.297c.93-.777 2.377-1.423 3.545-1.583 3.434-.468 6.708 1.618 7.63 4.863.696 2.453-.015 4.979-1.896 6.727-1.403 1.304-3.178 1.942-5.132 1.845-2.984-.148-5.392-2.053-6.293-4.98-.192-.624-.263-2.081-.138-2.839.25-1.512 1.13-3.068 2.284-4.033zm54.115.724c.26-.278.362-.445.345-.563-.041-.287-.33-.257-.638.066-1.207 1.263-1.832 2.719-1.956 4.558-.043.645-.038.676.125.762.276.144.358-.025.448-.922.166-1.66.662-2.815 1.676-3.9zm29.8 3.976c-.108-1.729-.748-3.214-1.908-4.43-.164-.173-.346-.31-.404-.308-.382.021-.393.314-.023.66.992.93 1.663 2.489 1.797 4.173.045.57.078.695.2.76.108.056.18.05.266-.02.1-.08.11-.214.072-.835zm-19.408-.657c-.36-1.353-1.487-2.522-2.869-2.976-.542-.178-1.545-.25-2.11-.15-1.618.282-3.02 1.561-3.44 3.138-.142.535-.142 1.63 0 2.154.395 1.452 1.714 2.707 3.204 3.051 2.272.524 4.624-.87 5.215-3.09.147-.554.147-1.573 0-2.127zm14.177-1.953a4.298 4.298 0 00-1.807-1.06c-.601-.173-1.527-.209-2.102-.081-1.094.243-2.188.979-2.766 1.862a4.186 4.186 0 001.205 5.808c.725.474 1.34.679 2.195.73a4.276 4.276 0 003.21-1.143c.922-.845 1.375-1.886 1.364-3.136-.011-1.199-.415-2.124-1.3-2.98zm-81.447.57a.954.954 0 00-.106-1.503c-.26-.17-2.02-.242-2.174-.088-.098.098-.137 1.487-.048 1.714.038.098.204.116 1.053.116h1.008l.267-.239zm72.517-.766c.412-.45.461-.583.282-.759-.144-.14-.246-.149-1.91-.149-1.61 0-1.774.012-1.933.139-.215.17-.17.279.385.926.397.464.881 1.226 1.052 1.657.17.432.304.59.5.59.156 0 .223-.086.445-.562.3-.643.804-1.431 1.18-1.842zm-63.023-.178a4.934 4.934 0 00-.873-.399 4.09 4.09 0 00-4.22.976c-.817.807-1.209 1.732-1.211 2.853-.004 1.92 1.527 3.656 3.482 3.947a4.17 4.17 0 004.461-2.53c.24-.57.323-1.679.176-2.328-.214-.94-.969-1.987-1.815-2.519zm21.057 6.039v-6.18h-.601v6.18h.601zm7.141 0v-6.18h-.25c-.138 0-.273.022-.301.05-.028.026-.05 1.416-.05 3.089v3.04h.601zm-8.269-4.709v-1.396h-1.879v5.885h1.88v-4.12h-.744c-.745 0-.864-.042-.78-.276.023-.065.25-.092.778-.092h.745zm7.142-.01v-1.388H34.04v1.396l2.237.02c2.18.019 2.236.023 2.236.166 0 .144-.057.148-2.236.167l-2.237.02v4.118h5.413v-4.111l-.207-.023c-.149-.017-.207-.065-.207-.17 0-.107.058-.154.207-.171l.207-.023zm3.758.01v-1.396h-2.029v1.398h2.029zM9.073 34.506c-.988-.828-.69-2.392.537-2.813 1.139-.39 2.258.388 2.253 1.567-.006 1.44-1.671 2.183-2.79 1.246zm34.138 1.166v-4.12h-2.029v4.12h2.029zm21.584-1.198c-.995-.926-.555-2.535.78-2.853.346-.082.43-.078.87.05 1.24.358 1.61 1.92.66 2.803-.282.262-.782.463-1.155.463-.372 0-.873-.201-1.155-.463zm15.19-.168c-.763-.906-.327-2.284.837-2.651 1.046-.33 2.178.5 2.18 1.596 0 1.568-1.997 2.266-3.017 1.055zm8.306-1.628c.325-.077.349-.233.078-.519a.546.546 0 00-.33-.165c-.163 0-.17.02-.127.35.026.191.057.36.07.375.012.015.151-.004.309-.04zm-43.642-.022l-.024-.276-.023-.276-.432-.022-.433-.022v.596h.912zm11.416-.147c-.217 0-.526-.216-.526-.368 0-.048-1.553-.074-4.51-.074h-4.51v.662h.545c.633 0 5.76.121 7.817.185l1.41.043v-.224c0-.2-.024-.224-.226-.224zm3.198.275c.009-.01.039-.175.067-.367l.052-.35h-.3c-.26 0-.315.03-.418.232-.065.128-.118.24-.118.25 0 .028.7.257.717.235zM10.661 34.22c.818-.402.806-1.567-.02-1.934-.174-.077-.385-.141-.467-.141-.29 0-.765.272-.928.53-.582.921.432 2.028 1.415 1.545zm55.776 0c.818-.402.8-1.57-.028-1.938-.388-.172-.53-.172-.927.004-.404.18-.621.518-.621.967a1.084 1.084 0 001.576.967zm15.967-.962c0-.385-.179-.708-.51-.92-.46-.295-1.045-.196-1.42.241-.344.4-.366.898-.06 1.32.607.834 1.99.389 1.99-.64z" fill="#0B225C"/></svg>